<?xml version="1.0" encoding="UTF-8"?>
<svg id="_レイヤー_2" data-name="レイヤー 2" xmlns="http://www.w3.org/2000/svg" viewBox="0 0 341.01 77.96">
  <defs>
    <style>
      .cls-1 {
        fill: #121659;
      }
    </style>
  </defs>
  <g id="_レイヤー_1-2" data-name="レイヤー 1">
    <g>
      <polygon class="cls-1" points="234.35 77.96 214.52 77.96 269.06 0 275.38 0 234.35 77.96"/>
      <polygon class="cls-1" points="332.24 77.96 298.8 77.96 300.05 0 312.99 0 332.24 77.96"/>
      <path class="cls-1" d="m341.01,22.22v1.06c-77.29-9.15-136.06,53.19-136.06,53.19v-20.1s50.29-45.66,136.06-34.15Z"/>
    </g>
    <g>
      <path class="cls-1" d="m.85,2.85h5.41v9.95h13.06V2.85h5.41v25.83h-5.41v-11.53H6.26v11.52H.85V2.85Z"/>
      <path class="cls-1" d="m43.29,22.16l-2.6,6.51h-5.6L45.74,2.84h6.84l11.16,25.83h-5.89l-2.74-6.51h-11.82Zm10.24-4.39c-2.63-6.33-3.91-9.44-4.54-11.34h-.04c-.55,1.83-2.05,5.93-4.21,11.34h8.79Z"/>
      <path class="cls-1" d="m74.09,28.67V2.85h6.4c6.8,10.1,11.45,16.28,13.02,19.2h.07c-.26-2.93-.22-7.54-.22-11.74V2.85h5.01v25.83h-6.04c-2.89-4.28-11.78-17.49-13.43-20.45h-.07c.22,3.26.22,6.91.22,11.49v8.96h-4.96Z"/>
      <path class="cls-1" d="m133.84,17.4h-14.74v6.88h16.35l-.62,4.39h-21.14V2.85h20.96v4.39h-15.55v5.78h14.74v4.38h0Z"/>
      <path class="cls-1" d="m148.88,2.85h11.3c8.6,0,13.39,5.56,13.39,12.47,0,8.27-6,13.35-13.5,13.35h-11.19V2.85h0Zm5.42,21.54h5.01c5.63,0,8.52-3.29,8.52-8.93,0-5.16-2.93-8.34-8.38-8.38h-5.16v17.31h.01Z"/>
      <path class="cls-1" d="m190.5,22.16l-2.6,6.51h-5.6l10.65-25.83h6.84l11.16,25.83h-5.89l-2.74-6.51h-11.82Zm10.24-4.39c-2.63-6.33-3.91-9.44-4.54-11.34h-.04c-.55,1.83-2.05,5.93-4.21,11.34h8.79Z"/>
    </g>
    <g>
      <path class="cls-1" d="m5.13,46.13c0,2.8-1.19,3.91-3.65,3.91-.53,0-1.04-.04-1.48-.12v-1.75c.33.04.79.07,1.17.07,1.22,0,1.75-.65,1.75-2v-6.89h2.21v6.78Z"/>
      <path class="cls-1" d="m14.61,47.77c0,.92.04,1.9.06,2.06h-1.97c-.06-.21-.09-.71-.09-.93-.41.7-1.29,1.14-2.77,1.14-2.11,0-2.94-1.27-2.94-2.48,0-1.97,1.76-2.53,3.99-2.53h1.67v-.28c0-.68-.3-1.27-1.57-1.27-1.17,0-1.44.47-1.56.99h-2.1c.07-.96.74-2.45,3.63-2.45,3.13,0,3.65,1.48,3.65,2.76v2.99h0Zm-2.05-1.38h-1.65c-1.38,0-1.97.34-1.97,1.07,0,.58.44,1.05,1.45,1.05,1.54,0,2.16-.79,2.16-1.93v-.19h.01Z"/>
      <path class="cls-1" d="m16.68,53.07v-8.98c0-.62,0-1.25-.01-1.87h2.06c.03.16.06.68.06,1.08.43-.68,1.24-1.29,2.74-1.29,1.99,0,3.56,1.65,3.56,3.87,0,2.59-1.84,4.15-3.85,4.15-1.35,0-2.08-.55-2.45-1.07v4.11h-2.11Zm4.18-9.41c-1.53,0-2.13,1.01-2.13,2.39s.71,2.31,2.1,2.31,2.09-1.02,2.09-2.37c0-1.2-.67-2.33-2.06-2.33Z"/>
      <path class="cls-1" d="m33.95,47.77c0,.92.04,1.9.06,2.06h-1.97c-.06-.21-.09-.71-.09-.93-.42.7-1.29,1.14-2.77,1.14-2.1,0-2.93-1.27-2.93-2.48,0-1.97,1.76-2.53,3.99-2.53h1.67v-.28c0-.68-.3-1.27-1.57-1.27-1.17,0-1.44.47-1.56.99h-2.1c.07-.96.74-2.45,3.63-2.45,3.13,0,3.65,1.48,3.65,2.76v2.99h-.01Zm-2.05-1.38h-1.64c-1.38,0-1.97.34-1.97,1.07,0,.58.44,1.05,1.45,1.05,1.54,0,2.16-.79,2.16-1.93v-.19Z"/>
      <path class="cls-1" d="m36.02,44.13c0-.64,0-1.36-.01-1.91h2.05c.03.22.04.74.06,1.11.34-.59,1.07-1.32,2.59-1.32,1.85,0,2.98,1.14,2.98,3.14v4.67h-2.12v-4.33c0-.99-.39-1.84-1.57-1.84-1.27,0-1.87.92-1.87,2.42v3.75h-2.11v-5.69h0Z"/>
      <path class="cls-1" d="m52.34,47.19l-1.05,2.64h-2.27l4.31-10.46h2.77l4.52,10.46h-2.39l-1.11-2.64h-4.78Zm4.15-1.78c-1.07-2.56-1.59-3.82-1.84-4.6h-.01c-.22.74-.83,2.4-1.7,4.6h3.55Z"/>
      <path class="cls-1" d="m61.86,40.61v-1.85h2.11v1.85h-2.11Zm0,1.61h2.11v7.6h-2.11v-7.6Z"/>
      <path class="cls-1" d="m66.03,44.28c0-.68,0-1.38-.01-2.06h2.05c.04.25.07,1.08.07,1.57.44-1.05,1.42-1.81,2.98-1.78v1.93c-1.73-.01-2.98.79-2.98,2.98v2.91h-2.11v-5.55Z"/>
      <path class="cls-1" d="m72.37,53.07v-8.98c0-.62,0-1.25-.01-1.87h2.06c.03.16.06.68.06,1.08.43-.68,1.24-1.29,2.74-1.29,1.99,0,3.56,1.65,3.56,3.87,0,2.59-1.84,4.15-3.85,4.15-1.35,0-2.08-.55-2.45-1.07v4.11h-2.11Zm4.18-9.41c-1.53,0-2.13,1.01-2.13,2.39s.71,2.31,2.1,2.31,2.09-1.02,2.09-2.37c.01-1.2-.66-2.33-2.06-2.33Z"/>
      <path class="cls-1" d="m90.5,46.02c0,2.27-1.54,4.02-4.33,4.02s-4.21-1.91-4.21-4.02,1.51-4,4.3-4c2.86-.01,4.24,2.07,4.24,4Zm-6.39,0c0,1.27.74,2.4,2.12,2.4s2.1-1.1,2.1-2.37-.68-2.43-2.12-2.43c-1.43,0-2.1,1.12-2.1,2.4Z"/>
      <path class="cls-1" d="m92.11,44.28c0-.68,0-1.38-.01-2.06h2.05c.04.25.07,1.08.07,1.57.44-1.05,1.42-1.81,2.98-1.78v1.93c-1.73-.01-2.98.79-2.98,2.98v2.91h-2.11v-5.55Z"/>
      <path class="cls-1" d="m98.03,42.22h1.41v-2.31h2.1v2.31h1.84v1.54h-1.84v3.51c0,.73.16,1.05.93,1.05.21,0,.47-.01.68-.06v1.45c-.39.13-.89.16-1.41.16-1.78,0-2.31-.77-2.31-2.27v-3.85h-1.41v-1.53h.01Z"/>
      <path class="cls-1" d="m111.94,41.12h-3.79v-1.76h9.77v1.76h-3.78v8.7h-2.19v-8.7h-.01Z"/>
      <path class="cls-1" d="m119.35,46.52c.07,1.1.84,1.93,2.1,1.93,1.01,0,1.5-.34,1.82-.9h2.09c-.44,1.29-1.56,2.49-3.94,2.49-2.99,0-4.17-2.05-4.17-4,0-2.19,1.48-4.02,4.14-4.02,2.94,0,4.08,2.06,4.08,4,0,.16,0,.3-.01.5h-6.11Zm3.99-1.32c-.06-.68-.43-1.69-1.94-1.69-1.36,0-1.91.79-2.02,1.69h3.96Z"/>
      <path class="cls-1" d="m127.1,44.28c0-.68,0-1.38-.01-2.06h2.05c.04.25.07,1.08.07,1.57.44-1.05,1.42-1.81,2.98-1.78v1.93c-1.73-.01-2.98.79-2.98,2.98v2.91h-2.11v-5.55Z"/>
      <path class="cls-1" d="m133.44,44.18c0-.65,0-1.3-.01-1.96h2c.04.3.06.65.06.96.4-.58,1.13-1.17,2.37-1.17s1.99.59,2.3,1.3c.4-.59,1.11-1.3,2.58-1.3,1.57,0,2.82.92,2.82,3.19v4.62h-2.08v-4.58c0-.73-.24-1.62-1.35-1.62-.98,0-1.59.62-1.59,2v4.19h-2.08v-4.6c0-.81-.28-1.6-1.36-1.6s-1.59.83-1.59,2.05v4.15h-2.08v-5.63h0Z"/>
      <path class="cls-1" d="m147.64,40.61v-1.85h2.11v1.85h-2.11Zm0,1.61h2.11v7.6h-2.11v-7.6Z"/>
      <path class="cls-1" d="m151.82,44.13c0-.64,0-1.36-.01-1.91h2.05c.03.22.04.74.06,1.11.34-.59,1.07-1.32,2.59-1.32,1.85,0,2.98,1.14,2.98,3.14v4.67h-2.12v-4.33c0-.99-.39-1.84-1.57-1.84-1.27,0-1.87.92-1.87,2.42v3.75h-2.11v-5.69h0Z"/>
      <path class="cls-1" d="m168.8,47.77c0,.92.04,1.9.06,2.06h-1.97c-.06-.21-.09-.71-.09-.93-.41.7-1.29,1.14-2.77,1.14-2.1,0-2.93-1.27-2.93-2.48,0-1.97,1.76-2.53,3.99-2.53h1.67v-.28c0-.68-.3-1.27-1.57-1.27-1.17,0-1.44.47-1.56.99h-2.1c.07-.96.74-2.45,3.63-2.45,3.13,0,3.65,1.48,3.65,2.76v2.99h-.01Zm-2.04-1.38h-1.65c-1.38,0-1.97.34-1.97,1.07,0,.58.44,1.05,1.45,1.05,1.54,0,2.16-.79,2.16-1.93v-.19h.01Z"/>
      <path class="cls-1" d="m170.88,49.83v-11.08h2.09v11.07h-2.09Z"/>
    </g>
  </g>
</svg>