<svg id="グループ_25863" data-name="グループ 25863" xmlns="http://www.w3.org/2000/svg" xmlns:xlink="http://www.w3.org/1999/xlink" width="200" height="53.774" viewBox="0 0 200 53.774">
  <defs>
    <clipPath id="clip-path">
      <rect id="長方形_23215" data-name="長方形 23215" width="200" height="53.774" fill="none"/>
    </clipPath>
  </defs>
  <path id="パス_282" data-name="パス 282" d="M47.645.036,35.239,29.361h13.1L60.669.036Z" transform="translate(-19.06 -0.019)" fill="#363581"/>
  <path id="パス_283" data-name="パス 283" d="M105.985.036l-5.857,13.5L96.016.036H84.01L71.532,29.361H83.575l5.6-13.161,4.039,13.2h12.406L118.1.036Z" transform="translate(-38.691 -0.019)" fill="#363581"/>
  <g id="グループ_25862" data-name="グループ 25862" transform="translate(0 0)">
    <g id="グループ_25861" data-name="グループ 25861" clip-path="url(#clip-path)">
      <path id="パス_284" data-name="パス 284" d="M188.13,0c6.306,0,10.594,5.091,9.578,11.372a13.93,13.93,0,0,1-13.262,11.372H169.569l-2.875,6.636H155.053L167.531.017Zm-5.794,14.912a4.191,4.191,0,0,0,3.991-3.422,2.843,2.843,0,0,0-2.883-3.421l-7.654-.008-2.965,6.886Z" transform="translate(-83.866 -0.001)" fill="#363581" fill-rule="evenodd"/>
      <path id="パス_285" data-name="パス 285" d="M250.07.036h28.014l-3.493,8.12H258.838l-1.127,2.669h15.716l-3.493,8.045H254.364l-1.092,2.78h15.608L265.46,29.4H237.7Z" transform="translate(-128.569 -0.019)" fill="#363581" fill-rule="evenodd"/>
      <path id="パス_286" data-name="パス 286" d="M316.31.036h12.078l2.438,5.413L336.864.036h14.371l-16.3,15.052L341.121,29.4H328.789l-2.656-6.265L319.294,29.4H304.741l17.426-15.682Z" transform="translate(-164.83 -0.019)" fill="#363581" fill-rule="evenodd"/>
      <path id="パス_287" data-name="パス 287" d="M4.368,88.129h6.28l-.916,2.159H5.9L5.111,92.16H8.168l-.917,2.159H4.194L3.37,96.261H7.393L6.477,98.42H0Z" transform="translate(0 -47.668)" fill="#363581"/>
      <path id="パス_288" data-name="パス 288" d="M21.709,94.2h2.327l-.275.647c-.1.245-.224.46-.224.46h.028a4.116,4.116,0,0,1,2.842-1.281c1.458,0,2.3.691,1.415,2.778l-2.041,4.807H23.358L25.2,97.261c.293-.691.149-.978-.384-.978a2.394,2.394,0,0,0-1.882,1.065,4.457,4.457,0,0,0-.555.979l-1.393,3.281H18.563Z" transform="translate(-10.04 -50.856)" fill="#363581"/>
      <path id="パス_289" data-name="パス 289" d="M46.267,94.023c2.131,0,2.689,1.526,1.815,3.583-.1.245-.385.777-.385.777H43.14c-.2.907.349,1.325,1.12,1.325a5.642,5.642,0,0,0,2.309-.748l.158,1.741a7.179,7.179,0,0,1-3.543,1.079c-2.58,0-3.155-1.914-2.318-3.885a6.178,6.178,0,0,1,5.4-3.872m-.349,2.936c.238-.561.073-1.065-.5-1.065A2.054,2.054,0,0,0,43.8,96.959Z" transform="translate(-21.91 -50.856)" fill="#363581"/>
      <path id="パス_290" data-name="パス 290" d="M60.539,94.247h2.327L62.335,95.5c-.1.245-.224.46-.224.46h.028a4.316,4.316,0,0,1,3.081-1.842,1.356,1.356,0,0,1,.268.029L64.45,96.593a2.2,2.2,0,0,0-.472-.043,2.963,2.963,0,0,0-2.414,1.3,4.991,4.991,0,0,0-.554,1.007l-1.191,2.807H57.393Z" transform="translate(-31.043 -50.906)" fill="#363581"/>
      <path id="パス_291" data-name="パス 291" d="M73.38,102.558a2.307,2.307,0,0,0,2.273-1.425l.1-.244c.037-.087.13-.274.13-.274H75.86a3.213,3.213,0,0,1-2.139.777c-2.173,0-2.476-1.828-1.67-3.727s2.6-3.642,4.784-3.642c1.318,0,1.657.72,1.657.72h.042a1.5,1.5,0,0,1,.059-.173l.159-.374h2.271l-2.859,6.735a6.068,6.068,0,0,1-5.649,3.7,4.608,4.608,0,0,1-2.453-.662l1.488-1.886a3.464,3.464,0,0,0,1.831.475m3.789-4.865c.556-1.309.005-1.6-.724-1.6a2.191,2.191,0,0,0-1.919,1.482c-.391.921-.319,1.741.648,1.741.631,0,1.445-.331,1.994-1.626" transform="translate(-37.896 -50.856)" fill="#363581"/>
      <path id="パス_292" data-name="パス 292" d="M89.519,102.488a1.009,1.009,0,0,0,.627.273,1.853,1.853,0,0,0,1.481-.748l.286-.345.015-7.269h2.748l-.382,3.411c-.045.4-.222,1.151-.222,1.151H94.1s.439-.705.708-1.108L97.186,94.4h2.649l-6.44,8.2a5.191,5.191,0,0,1-3.961,2.23,2.134,2.134,0,0,1-1.463-.518Z" transform="translate(-47.583 -51.059)" fill="#363581"/>
      <path id="パス_293" data-name="パス 293" d="M121.993,93.012h-.883l.825-1.943h.883l.129-.3A4.622,4.622,0,0,1,127.428,88a5.065,5.065,0,0,1,.71.043l-.891,2.1a2.272,2.272,0,0,0-.381-.029c-.477,0-1.256.086-1.525.72l-.1.23h1.332l-.825,1.943h-1.331l-2.267,5.34h-2.426Z" transform="translate(-64.758 -47.6)" fill="#363581"/>
      <path id="パス_294" data-name="パス 294" d="M139.087,94.023c2.285,0,3.442,1.569,2.452,3.9a6.515,6.515,0,0,1-5.731,3.857c-2.271,0-3.44-1.54-2.457-3.857a6.565,6.565,0,0,1,5.736-3.9m-2.4,5.685a2.821,2.821,0,0,0,2.4-1.785c.477-1.123.019-1.828-.865-1.828a2.877,2.877,0,0,0-2.416,1.828c-.471,1.108,0,1.785.883,1.785" transform="translate(-71.938 -50.856)" fill="#363581"/>
      <path id="パス_295" data-name="パス 295" d="M154.257,94.247h2.327l-.532,1.252c-.1.245-.224.46-.224.46h.028a4.315,4.315,0,0,1,3.081-1.842,1.355,1.355,0,0,1,.268.029l-1.039,2.447a2.2,2.2,0,0,0-.472-.043,2.961,2.961,0,0,0-2.414,1.3,4.946,4.946,0,0,0-.554,1.007l-1.191,2.807h-2.426Z" transform="translate(-81.734 -50.906)" fill="#363581"/>
      <path id="パス_296" data-name="パス 296" d="M179.911,96.987h.1l.055-.13c.263-.619-.114-.82-.717-.82a6.322,6.322,0,0,0-2.248.706l-.1-1.756a7.809,7.809,0,0,1,3.438-.965c2.033,0,2.77,1.137,1.97,3.023l-1.937,4.562h-2.215l.19-.446c.1-.245.224-.46.224-.46h-.028a3.683,3.683,0,0,1-2.5,1.079c-1.346,0-2.062-.921-1.439-2.389.916-2.159,4.09-2.4,5.211-2.4m-2.293,2.892a2.376,2.376,0,0,0,1.748-1.309l.067-.159h-.224c-.771,0-1.752.23-2.015.849-.146.346-.053.619.424.619" transform="translate(-94.369 -50.855)" fill="#363581"/>
      <path id="パス_297" data-name="パス 297" d="M203.7,88.129h2.425l-1.215,2.864c-.159.374-.3.633-.3.633h.028a4.114,4.114,0,0,1,2.284-.792c1.963,0,2.581,1.583,1.6,3.886-1,2.346-3.088,3.871-5.008,3.871-1.331,0-1.622-.835-1.622-.835h-.028s-.065.187-.163.418l-.1.244h-2.271Zm.2,8.405a2.636,2.636,0,0,0,2.167-1.77c.471-1.108.2-1.828-.64-1.828a2.6,2.6,0,0,0-2.192,1.828c-.379.893-.289,1.77.664,1.77" transform="translate(-107.816 -47.668)" fill="#363581"/>
      <path id="パス_298" data-name="パス 298" d="M221.927,94.247h2.327l-.532,1.252c-.1.245-.224.46-.224.46h.028a4.316,4.316,0,0,1,3.081-1.842,1.356,1.356,0,0,1,.268.029l-1.039,2.447a2.2,2.2,0,0,0-.472-.043,2.961,2.961,0,0,0-2.414,1.3,4.946,4.946,0,0,0-.554,1.007l-1.191,2.807h-2.425Z" transform="translate(-118.335 -50.906)" fill="#363581"/>
      <path id="パス_299" data-name="パス 299" d="M236.1,94.4h2.426l-3.146,7.412h-2.426Z" transform="translate(-126.002 -51.059)" fill="#363581"/>
      <path id="パス_300" data-name="パス 300" d="M244.349,102.558a2.308,2.308,0,0,0,2.273-1.425l.1-.244c.037-.087.13-.274.13-.274h-.028a3.213,3.213,0,0,1-2.139.777c-2.173,0-2.476-1.828-1.67-3.727s2.6-3.642,4.784-3.642c1.318,0,1.657.72,1.657.72h.042a1.408,1.408,0,0,1,.059-.173l.159-.374h2.271l-2.859,6.735a6.067,6.067,0,0,1-5.649,3.7,4.608,4.608,0,0,1-2.453-.662l1.488-1.886a3.464,3.464,0,0,0,1.831.475m3.789-4.865c.556-1.309.005-1.6-.724-1.6a2.191,2.191,0,0,0-1.919,1.482c-.391.921-.319,1.741.648,1.741.631,0,1.445-.331,1.994-1.626" transform="translate(-130.37 -50.856)" fill="#363581"/>
      <path id="パス_301" data-name="パス 301" d="M266.678,88.129H269.1l-1.381,3.253c-.158.374-.3.633-.3.633h.028a3.919,3.919,0,0,1,2.7-1.18c1.458,0,2.3.691,1.415,2.778L269.53,98.42H267.1l1.845-4.347c.293-.691.149-.978-.384-.978a2.463,2.463,0,0,0-1.908,1.093,4.282,4.282,0,0,0-.529.95l-1.393,3.281H262.31Z" transform="translate(-141.88 -47.668)" fill="#363581"/>
      <path id="パス_302" data-name="パス 302" d="M286.6,94.114h-.926l.825-1.943h.995l.9-2.131h2.355l-.9,2.131h1.514l-.825,1.943h-1.513l-.966,2.274c-.354.835.424.95.887.95.2,0,.329-.015.329-.015l-.916,2.159a4.958,4.958,0,0,1-.677.044c-1.151,0-3.245-.317-2.188-2.807Z" transform="translate(-154.263 -48.702)" fill="#363581"/>
      <path id="パス_303" data-name="パス 303" d="M303.51,94.023c2.131,0,2.689,1.526,1.815,3.583-.1.245-.385.777-.385.777h-4.557c-.2.907.349,1.325,1.12,1.325a5.642,5.642,0,0,0,2.309-.748l.158,1.741a7.18,7.18,0,0,1-3.543,1.079c-2.58,0-3.155-1.914-2.318-3.885a6.178,6.178,0,0,1,5.4-3.872m-.349,2.936c.238-.561.073-1.065-.5-1.065a2.054,2.054,0,0,0-1.615,1.065Z" transform="translate(-161.049 -50.856)" fill="#363581"/>
      <path id="パス_304" data-name="パス 304" d="M317.173,94.247H319.5l-.532,1.252c-.1.245-.224.46-.224.46h.028a4.315,4.315,0,0,1,3.081-1.842,1.355,1.355,0,0,1,.268.029l-1.039,2.447a2.2,2.2,0,0,0-.472-.043,2.961,2.961,0,0,0-2.414,1.3,4.946,4.946,0,0,0-.554,1.007l-1.191,2.807h-2.426Z" transform="translate(-169.853 -50.906)" fill="#363581"/>
      <path id="パス_305" data-name="パス 305" d="M340.268,93.012h-.883l.824-1.943h.883l.129-.3A4.622,4.622,0,0,1,345.7,88a5.088,5.088,0,0,1,.711.043l-.893,2.1a2.261,2.261,0,0,0-.38-.029c-.477,0-1.256.086-1.525.72l-.1.23h1.332l-.825,1.943h-1.331l-2.267,5.34H338Z" transform="translate(-182.82 -47.6)" fill="#363581"/>
      <path id="パス_306" data-name="パス 306" d="M353.995,94.4h2.426l-1.845,4.346c-.293.691-.149.978.356.978a2.946,2.946,0,0,0,2.4-2.044l1.392-3.281h2.425L358,101.812h-2.327l.275-.648c.1-.245.223-.46.223-.46h-.027a4.016,4.016,0,0,1-2.8,1.28c-1.43,0-2.273-.691-1.387-2.777Z" transform="translate(-190.171 -51.06)" fill="#363581"/>
      <path id="パス_307" data-name="パス 307" d="M373.714,94.114h-.926l.825-1.943h1l.9-2.131h2.355l-.9,2.131h1.514l-.824,1.943h-1.514l-.965,2.274c-.354.835.424.95.886.95.2,0,.329-.015.329-.015l-.916,2.159a4.942,4.942,0,0,1-.677.044c-1.149,0-3.244-.317-2.187-2.807Z" transform="translate(-201.382 -48.702)" fill="#363581"/>
      <path id="パス_308" data-name="パス 308" d="M386.932,94.4h2.426l-1.845,4.346c-.293.691-.15.978.355.978a2.945,2.945,0,0,0,2.4-2.044l1.392-3.281h2.426l-3.146,7.412h-2.327l.275-.648c.1-.245.224-.46.224-.46h-.028a4.014,4.014,0,0,1-2.8,1.28c-1.429,0-2.272-.691-1.386-2.777Z" transform="translate(-207.986 -51.06)" fill="#363581"/>
      <path id="パス_309" data-name="パス 309" d="M405.885,94.247h2.327l-.532,1.252c-.1.245-.224.46-.224.46h.028a4.315,4.315,0,0,1,3.081-1.842,1.356,1.356,0,0,1,.268.029L409.8,96.593a2.2,2.2,0,0,0-.472-.043,2.962,2.962,0,0,0-2.414,1.3,4.991,4.991,0,0,0-.554,1.007l-1.191,2.807h-2.426Z" transform="translate(-217.836 -50.906)" fill="#363581"/>
      <path id="パス_310" data-name="パス 310" d="M424.021,94.023c2.131,0,2.689,1.526,1.815,3.583-.1.245-.385.777-.385.777h-4.557c-.2.907.349,1.325,1.12,1.325a5.642,5.642,0,0,0,2.309-.748l.158,1.741a7.18,7.18,0,0,1-3.543,1.079c-2.58,0-3.155-1.914-2.318-3.885a6.178,6.178,0,0,1,5.4-3.872m-.349,2.936c.238-.561.073-1.065-.5-1.065a2.054,2.054,0,0,0-1.615,1.065Z" transform="translate(-226.232 -50.856)" fill="#363581"/>
      <path id="パス_311" data-name="パス 311" d="M241.442,87.135,240.245,90l5.194-1.919Z" transform="translate(-129.945 -47.13)" fill="#363581"/>
    </g>
  </g>
</svg>
