<?xml version="1.0" encoding="UTF-8"?><svg id="_レイヤー_1" xmlns="http://www.w3.org/2000/svg" width="300" height="46" viewBox="0 0 300 46"><defs><style>.cls-1{fill:#004ea8;}.cls-1,.cls-2{stroke-width:0px;}.cls-2{fill:#c00d1e;}</style></defs><polygon class="cls-1" points="36.57 8.56 32.53 27.58 39.56 27.58 43.61 8.56 36.57 8.56"/><polygon class="cls-1" points="45.08 1.63 38.05 1.63 37.04 6.37 44.07 6.37 45.08 1.63"/><path class="cls-1" d="M59.83,8.06c-2.75,0-4.95,1.75-6.32,3.4l-.94-2.89h-5.09l-4.04,19.01h6.88s1.8-8.45,2.24-10.55c.44-2.07,1.62-3.67,3.5-3.67,1.53,0,2.19,1.05,1.79,3.01l-2.38,11.21h6.88l2.44-11.47c1.22-5.7-1.25-8.06-4.95-8.06"/><path class="cls-1" d="M78.33,8.06c-6.22,0-10.97,4.49-11.36,11.26-.35,6.05,3.5,8.93,9.13,8.93,5.26,0,9.09-2.67,10.15-6.82h-6.5c-.61,1.38-1.97,2.06-3.34,2.06-1.9,0-3.02-1-2.86-3.95h12.97c.18-.73.32-1.74.36-2.35.4-5.89-2.82-9.13-8.54-9.13M80.52,16.18h-6.4c.75-2.38,2.12-3.56,3.91-3.56,1.89,0,2.85,1.19,2.49,3.56"/><path class="cls-1" d="M124.34,8.06c-6.22,0-10.97,4.49-11.36,11.26-.35,6.05,3.5,8.93,9.13,8.93,5.26,0,9.09-2.67,10.15-6.82h-6.5c-.61,1.38-1.97,2.06-3.34,2.06-1.9,0-3.02-1-2.86-3.95h12.97c.18-.73.32-1.74.36-2.35.4-5.89-2.82-9.13-8.54-9.13M126.54,16.18h-6.4c.75-2.38,2.12-3.56,3.91-3.56,1.9,0,2.85,1.19,2.49,3.56"/><polygon class="cls-1" points="287.45 27.58 294.49 27.58 298.53 8.56 291.5 8.56 287.45 27.58"/><polygon class="cls-1" points="292.97 1.63 291.96 6.37 298.99 6.37 300 1.63 292.97 1.63"/><polygon class="cls-1" points="179.55 1.63 172.62 14.05 172.45 14.05 170.91 1.63 161.04 1.63 155.53 27.58 162.33 27.58 165.86 10.98 166.07 10.98 168.58 27.58 170.69 27.58 180.3 10.98 180.52 10.98 177 27.58 184.11 27.58 189.63 1.63 179.55 1.63"/><polygon class="cls-1" points="24.02 1.63 17.09 14.05 16.92 14.05 15.38 1.63 5.52 1.63 0 27.58 6.8 27.58 10.33 10.98 10.54 10.98 13.05 27.58 15.15 27.58 24.77 10.98 24.99 10.98 21.47 27.58 28.58 27.58 34.09 1.63 24.02 1.63"/><polygon class="cls-1" points="188.06 27.58 195.1 27.58 199.14 8.56 192.11 8.56 188.06 27.58"/><polygon class="cls-1" points="193.58 1.63 192.57 6.37 199.61 6.37 200.61 1.63 193.58 1.63"/><path class="cls-1" d="M208.06,13.12h4.26l.97-4.56h-4.26l.8-3.77h-6.49l-3.42,16.11c-.97,4.54.32,7.15,4.81,7.15,1.59,0,3.36-.34,4.5-.82l1.05-4.99c-.65.2-1.65.37-2.36.37-1.34,0-1.73-.68-1.42-2.12l1.57-7.38Z"/><path class="cls-1" d="M281.56,8.05c-2.68,0-5.21,1.57-6.76,3.41-.54-2.37-2.29-3.41-4.75-3.41s-4.39,1.29-5.9,3.12l-.85-2.61h-5.09l-4.04,19.01h6.88l2.59-12.17c.74-1.19,1.75-2.07,2.89-2.07,1.53,0,1.9,1.04,1.5,3.01l-2.39,11.23h6.56s2.54-12.02,2.59-12.28c.73-1.2,1.81-1.97,3.01-1.97,1.53,0,2.08,1.05,1.68,3.02l-2.41,11.23h7.03l2.44-11.49c1.23-5.71-1.27-8.04-4.97-8.04"/><path class="cls-1" d="M245.1,19.12c-.41,1.93-1.54,3.67-3.5,3.67-1.61,0-2.21-.96-1.8-2.96l2.39-11.26h-6.82l-2.46,11.57c-1.14,5.31.68,7.95,4.78,7.95,2.49,0,4.73-1.24,6.47-3.31l.91,2.8h5.17l4.04-19.01h-6.93s-1.77,8.35-2.24,10.55"/><path class="cls-1" d="M222.99,12.53c1.12,0,1.89.45,1.88,1.34h6.27c0-4.44-3.14-5.82-7.68-5.82-6.2,0-8.94,3.56-8.94,6.86,0,2.67,1.06,4.28,5.03,5.11,2.68.57,3.71.88,3.71,2.02,0,.9-.82,1.4-2.13,1.4-1.21,0-2.14-.54-2.11-1.72h-6.33c-.23,4.55,2.94,6.52,8.14,6.52s9.18-2.35,9.18-6.95c0-3.64-1.9-4.76-5.53-5.59-2.78-.64-3.51-.83-3.51-1.84,0-.77.75-1.32,2.02-1.32"/><path class="cls-1" d="M104.14,8.06c-2.15,0-4.25.95-5.5,1.9L100.75.01h-6.82l-5.86,27.57h4.99l1.83-2.1c1.34,1.62,3.08,2.61,5.85,2.61,5.44,0,10.18-4.69,10.18-12.79,0-4.69-2.72-7.24-6.77-7.24M99.17,23.46c-2,0-3.24-1.98-2.52-5.38.69-3.25,2.64-5.41,4.88-5.41,1.7,0,2.73,1.21,2.73,3.43,0,4.22-2.45,7.37-5.09,7.37"/><path class="cls-1" d="M146.56,8.06c-4.99,0-8.67,2.16-9.71,6.63h6.51c.37-1.36,1.5-2.06,2.62-2.06,1.46,0,2.03.9,1.61,2.89-.07.33-.14.68-.14.68h-3.03c-6.09,0-9.04,1.87-9.85,5.74-.76,3.6,1.51,6.16,5.29,6.16,2.6,0,4.83-1.36,6.28-2.89l.77,2.38h4.96l2.35-11.06c1.16-5.33-1.52-8.46-7.67-8.46M146.61,20.18c-.38,1.37-1.9,3.38-3.73,3.38-1.29,0-1.92-.73-1.76-1.82.21-1.36,1.32-2.18,3.46-2.18h2.16l-.13.62Z"/><path class="cls-2" d="M2,33.98h3.77c1.9,0,3.27.67,3.26,2.74,0,2.07-1.73,3.3-3.68,3.3h-2.56l-.73,3.38H0l2-9.42ZM3.15,38.42h2.11c1.05,0,1.7-.53,1.71-1.65,0-.95-.73-1.17-1.46-1.17h-1.77l-.59,2.82Z"/><path class="cls-2" d="M10.24,38.65c.26-1.72,1.7-2.26,3.24-2.26,1.21,0,2.87.26,2.83,1.79,0,.3-.06.73-.15,1.15l-.62,2.74c-.07.25-.1.66-.1.92,0,.13.02.26.06.4h-1.87v-.67c-.51.58-1.31.86-2.08.86-1.48,0-2.21-.85-2.21-1.79,0-1.32.98-2.12,2.62-2.32,1.76-.21,2.6-.11,2.6-.99,0-.69-.71-.83-1.18-.83-.67,0-1.27.32-1.39,1h-1.76ZM14.19,40.13c-.48.28-1.04.29-1.59.33-.7.07-1.39.26-1.39,1.11,0,.51.49.77,1.03.77,1.16,0,1.55-.81,1.76-1.54l.19-.66Z"/><path class="cls-2" d="M22.35,38.57c-.01-.58-.32-.92-1.05-.92-.67,0-1.15.18-1.15.67,0,.3.22.49.85.69l.94.3c1,.32,1.79.82,1.79,1.95,0,1.69-1.67,2.32-3.26,2.32-1.33,0-2.9-.53-2.89-2.12v-.28h1.74v.22c0,.62.69.92,1.34.92.57,0,1.19-.2,1.19-.82,0-.48-.26-.61-.67-.75l-1.44-.46c-.93-.32-1.47-.66-1.47-1.74,0-1.61,1.71-2.16,3.03-2.16,1.48,0,2.84.42,2.79,2.18h-1.74Z"/><path class="cls-2" d="M29.86,38.57c-.01-.58-.32-.92-1.05-.92-.67,0-1.15.18-1.15.67,0,.3.22.49.86.69l.94.3c1,.32,1.79.82,1.79,1.95,0,1.69-1.67,2.32-3.26,2.32-1.33,0-2.9-.53-2.89-2.12v-.28h1.74v.22c0,.62.69.92,1.34.92.57,0,1.19-.2,1.19-.82,0-.48-.26-.61-.67-.75l-1.44-.46c-.93-.32-1.47-.66-1.47-1.74,0-1.61,1.71-2.16,3.03-2.16,1.48,0,2.83.42,2.79,2.18h-1.74Z"/><path class="cls-2" d="M34.06,36.58h1.89l-1.48,6.82h-1.89l1.48-6.82ZM36.16,35.53h-1.89l.35-1.54h1.89l-.35,1.54Z"/><path class="cls-2" d="M36.92,40.65c0-2.32,1.51-4.25,3.93-4.25,1.87,0,3.18.94,3.17,2.89,0,2.39-1.51,4.3-3.99,4.3-1.9,0-3.12-.99-3.12-2.94M38.8,40.65c0,.8.46,1.53,1.34,1.53,1.4,0,2.01-1.7,2.02-2.86,0-.91-.38-1.51-1.37-1.51-1.37,0-1.98,1.69-1.99,2.84"/><path class="cls-2" d="M46.52,36.58h1.79l-.21.95h.02c.61-.75,1.4-1.13,2.39-1.13,1.31,0,1.99.63,1.98,1.83,0,.29-.16.94-.2,1.17l-.86,4h-1.87l.85-4c.04-.21.12-.65.12-.83,0-.41-.46-.7-.9-.7-1.13,0-1.71.95-1.92,1.9l-.78,3.63h-1.87l1.45-6.82Z"/><path class="cls-1" d="M60.59,36.58h1.35l-.3,1.25h-1.33l-.71,3.39c-.04.14-.05.26-.05.32,0,.49.35.5.63.5.22,0,.45-.01.67-.04l-.32,1.45c-.38.04-.77.07-1.17.07-.87,0-1.82-.28-1.78-1.39,0-.17.04-.4.1-.65l.78-3.65h-1.23l.3-1.25h1.2l.43-2.07h1.87l-.43,2.07Z"/><path class="cls-1" d="M62.58,40.65c0-2.32,1.51-4.25,3.93-4.25,1.87,0,3.18.94,3.17,2.89,0,2.39-1.51,4.3-3.99,4.3-1.9,0-3.12-.99-3.12-2.94M64.45,40.65c0,.8.46,1.53,1.34,1.53,1.4,0,2.01-1.7,2.02-2.86,0-.91-.38-1.51-1.37-1.51-1.37,0-1.99,1.69-1.99,2.84"/><path class="cls-1" d="M80.64,37.26c0-1.16-.68-1.76-1.68-1.76-2.12,0-3.1,2.15-3.1,3.96,0,1.29.62,2.43,2.13,2.43,1.13,0,2.03-.87,2.22-1.87h2.07c-.86,2.62-2.28,3.61-4.33,3.61-2.65,0-4.18-1.49-4.17-4.17,0-3.05,1.99-5.7,5.17-5.7,2.19,0,3.81,1.21,3.76,3.5h-2.07Z"/><path class="cls-1" d="M85.17,36.58h1.78l-.28,1.23.03.03c.43-.95,1.35-1.44,2.35-1.44.18,0,.38.01.58.04l-.39,1.82c-.26-.05-.53-.12-.79-.12-1.44,0-1.96,1.08-2.21,2.24l-.65,3.02h-1.87l1.45-6.82Z"/><path class="cls-1" d="M91.87,40.45c-.01.09-.01.16-.01.23v.17c0,.79.48,1.33,1.5,1.33.75,0,1.11-.5,1.4-.94h1.87c-.6,1.53-1.58,2.35-3.55,2.35-1.83,0-3.03-1.03-3.02-2.98,0-2.18,1.46-4.21,3.78-4.21,1.9,0,3.18,1,3.17,2.98,0,.36-.04.71-.11,1.07h-5.03ZM95.2,39.26c0-.7-.17-1.45-1.26-1.45s-1.59.67-1.86,1.45h3.13Z"/><path class="cls-2" d="M257.81,36.58h1.78l-.28,1.23.03.03c.43-.95,1.35-1.44,2.35-1.44.19,0,.38.01.58.04l-.39,1.82c-.26-.05-.53-.12-.79-.12-1.44,0-1.96,1.08-2.21,2.24l-.65,3.02h-1.87l1.45-6.82Z"/><path class="cls-2" d="M264.51,40.45c-.01.09-.01.16-.01.23v.17c0,.79.48,1.33,1.5,1.33.75,0,1.11-.5,1.4-.94h1.88c-.6,1.53-1.58,2.35-3.55,2.35-1.83,0-3.03-1.03-3.02-2.98,0-2.18,1.45-4.21,3.78-4.21,1.9,0,3.18,1,3.17,2.98,0,.36-.04.71-.11,1.07h-5.03ZM267.84,39.26c0-.7-.16-1.45-1.26-1.45s-1.59.67-1.87,1.45h3.13Z"/><path class="cls-1" d="M99.02,38.65c.26-1.72,1.7-2.26,3.24-2.26,1.21,0,2.87.26,2.83,1.79,0,.3-.06.73-.15,1.15l-.62,2.74c-.07.25-.1.66-.1.92,0,.13.02.26.06.4h-1.87v-.67c-.51.58-1.31.86-2.08.86-1.48,0-2.21-.85-2.21-1.79,0-1.32.98-2.12,2.62-2.32,1.76-.21,2.6-.11,2.6-.99,0-.69-.71-.83-1.18-.83-.67,0-1.27.32-1.39,1h-1.76ZM102.97,40.13c-.48.28-1.04.29-1.59.33-.7.07-1.39.26-1.39,1.11,0,.51.49.77,1.03.77,1.16,0,1.55-.81,1.76-1.54l.19-.66Z"/><path class="cls-1" d="M110.06,36.58h1.34l-.3,1.25h-1.33l-.71,3.39c-.04.14-.06.26-.06.32,0,.49.35.5.63.5.23,0,.45-.01.67-.04l-.32,1.45c-.38.04-.77.07-1.17.07-.87,0-1.82-.28-1.78-1.39,0-.17.04-.4.1-.65l.78-3.65h-1.23l.3-1.25h1.2l.43-2.07h1.87l-.43,2.07Z"/><path class="cls-1" d="M113.93,40.45c-.01.09-.01.16-.01.23v.17c0,.79.48,1.33,1.5,1.33.75,0,1.11-.5,1.4-.94h1.87c-.6,1.53-1.58,2.35-3.55,2.35-1.83,0-3.03-1.03-3.02-2.98,0-2.18,1.46-4.21,3.78-4.21,1.9,0,3.18,1,3.17,2.98,0,.36-.04.71-.11,1.07h-5.03ZM117.26,39.26c0-.7-.17-1.45-1.26-1.45s-1.59.67-1.86,1.45h3.13Z"/><polygon class="cls-1" points="127.59 43.4 125.26 43.4 124.21 33.98 126.28 33.98 126.87 41.06 126.9 41.06 130.5 33.98 132.65 33.98 127.59 43.4"/><path class="cls-1" d="M132.6,38.65c.26-1.72,1.7-2.26,3.24-2.26,1.21,0,2.88.26,2.83,1.79,0,.3-.06.73-.15,1.15l-.62,2.74c-.07.25-.1.66-.1.92,0,.13.03.26.06.4h-1.87v-.67c-.51.58-1.31.86-2.08.86-1.48,0-2.21-.85-2.21-1.79,0-1.32.98-2.12,2.62-2.32,1.76-.21,2.6-.11,2.6-.99,0-.69-.71-.83-1.18-.83-.67,0-1.27.32-1.39,1h-1.76ZM136.55,40.13c-.48.28-1.04.29-1.58.33-.7.07-1.39.26-1.39,1.11,0,.51.49.77,1.03.77,1.16,0,1.55-.81,1.76-1.54l.19-.66Z"/><polygon class="cls-1" points="141.94 33.98 143.82 33.98 141.77 43.4 139.9 43.4 141.94 33.98"/><path class="cls-1" d="M150.46,43.4h-1.79l.21-.95h-.03c-.61.75-1.4,1.14-2.39,1.14-1.31,0-1.99-.63-1.99-1.83,0-.28.14-.94.2-1.17l.86-4h1.87l-.85,4c-.07.2-.12.65-.12.83,0,.41.46.7.89.7,1.14,0,1.71-.95,1.92-1.9l.78-3.63h1.87l-1.45,6.82Z"/><path class="cls-1" d="M154.79,40.45c-.01.09-.01.16-.01.23v.17c0,.79.48,1.33,1.5,1.33.75,0,1.11-.5,1.4-.94h1.87c-.6,1.53-1.58,2.35-3.55,2.35-1.83,0-3.03-1.03-3.02-2.98,0-2.18,1.45-4.21,3.78-4.21,1.9,0,3.18,1,3.17,2.98,0,.36-.04.71-.11,1.07h-5.03ZM158.12,39.26c0-.7-.17-1.45-1.26-1.45s-1.59.67-1.87,1.45h3.13Z"/><path class="cls-1" d="M168.02,36.58h1.35l-.3,1.25h-1.33l-.71,3.39c-.04.14-.05.26-.05.32,0,.49.35.5.63.5.23,0,.45-.01.67-.04l-.32,1.45c-.38.04-.77.07-1.17.07-.87,0-1.82-.28-1.78-1.39,0-.17.04-.4.09-.65l.78-3.65h-1.23l.3-1.25h1.2l.43-2.07h1.87l-.43,2.07Z"/><path class="cls-1" d="M172.04,33.98h1.87l-.71,3.39h.03c.29-.4,1.03-.98,2.26-.98,1.31,0,1.99.63,1.98,1.83,0,.29-.16.94-.2,1.17l-.86,4h-1.87l.85-4c.04-.21.12-.65.12-.83,0-.41-.46-.7-.89-.7-1.14,0-1.71.95-1.92,1.9l-.78,3.63h-1.87l2-9.42Z"/><path class="cls-1" d="M180.08,36.58h1.78l-.28,1.23.03.03c.43-.95,1.35-1.44,2.35-1.44.18,0,.38.01.58.04l-.39,1.82c-.27-.05-.53-.12-.79-.12-1.44,0-1.96,1.08-2.21,2.24l-.65,3.02h-1.87l1.45-6.82Z"/><path class="cls-1" d="M184.97,40.65c0-2.32,1.51-4.25,3.93-4.25,1.88,0,3.18.94,3.17,2.89-.01,2.39-1.51,4.3-3.99,4.3-1.9,0-3.12-.99-3.12-2.94M186.85,40.65c0,.8.46,1.53,1.34,1.53,1.4,0,2.01-1.7,2.02-2.86,0-.91-.38-1.51-1.37-1.51-1.37,0-1.98,1.69-1.99,2.84"/><path class="cls-1" d="M199.48,43.4h-1.79l.21-.95h-.03c-.61.75-1.4,1.14-2.39,1.14-1.31,0-1.99-.63-1.99-1.83,0-.28.14-.94.2-1.17l.86-4h1.87l-.85,4c-.07.2-.12.65-.12.83,0,.41.46.7.89.7,1.14,0,1.71-.95,1.92-1.9l.78-3.63h1.87l-1.45,6.82Z"/><path class="cls-1" d="M208.24,43.05c-.46,2.06-1.53,2.94-3.77,2.94-1.37,0-2.91-.59-2.91-2.23h1.87c-.04.7.63.98,1.22.98,1.2,0,1.52-1.04,1.91-2.38l-.03-.03c-.49.65-1.11.96-1.88.96-1.62,0-2.62-1.11-2.61-2.78,0-1.99,1.28-4.12,3.46-4.12.95,0,1.7.33,2.08,1.23h.03l.21-1.04h1.79l-1.38,6.46ZM205.85,37.81c-1.25,0-1.92,1.48-1.93,2.57,0,.81.38,1.51,1.26,1.51,1.33,0,2-1.44,2-2.6,0-.86-.43-1.48-1.34-1.48"/><path class="cls-1" d="M212.49,33.98h1.87l-.71,3.39h.03c.29-.4,1.03-.98,2.26-.98,1.31,0,1.99.63,1.98,1.83,0,.29-.16.94-.2,1.17l-.86,4h-1.87l.85-4c.04-.21.12-.65.12-.83,0-.41-.46-.7-.9-.7-1.13,0-1.71.95-1.92,1.9l-.78,3.63h-1.87l2-9.42Z"/><path class="cls-2" d="M224.66,33.98h3.4c2.64,0,3.99,1.35,3.98,3.67-.01,3.28-1.84,5.75-5.47,5.75h-3.95l2.03-9.42ZM225.08,41.66h1.59c2.11,0,3.29-1.66,3.3-3.65,0-1.36-.57-2.28-2.05-2.28h-1.56l-1.29,5.94Z"/><path class="cls-2" d="M234.49,36.58h1.89l-1.48,6.82h-1.89l1.48-6.82ZM236.59,35.53h-1.89l.35-1.54h1.89l-.35,1.54Z"/><path class="cls-2" d="M238.87,37.84h-1.11l.27-1.25h1.12c.36-1.74.7-2.68,2.66-2.68.41,0,.82.04,1.22.11l-.3,1.35c-.2-.01-.41-.04-.61-.04-.94,0-.9.47-1.11,1.27h1.33l-.27,1.25h-1.35l-1.19,5.57h-1.87l1.19-5.57Z"/><path class="cls-2" d="M244.33,37.84h-1.11l.27-1.25h1.12c.36-1.74.7-2.68,2.66-2.68.41,0,.82.04,1.23.11l-.3,1.35c-.2-.01-.41-.04-.61-.04-.94,0-.9.47-1.11,1.27h1.33l-.27,1.25h-1.35l-1.2,5.57h-1.87l1.2-5.57Z"/><path class="cls-2" d="M250.15,40.45c-.01.09-.01.16-.01.23v.17c0,.79.48,1.33,1.5,1.33.75,0,1.11-.5,1.4-.94h1.87c-.6,1.53-1.58,2.35-3.55,2.35-1.83,0-3.03-1.03-3.02-2.98,0-2.18,1.45-4.21,3.78-4.21,1.9,0,3.18,1,3.17,2.98,0,.36-.04.71-.11,1.07h-5.03ZM253.48,39.26c0-.7-.17-1.45-1.26-1.45s-1.59.67-1.87,1.45h3.13Z"/><path class="cls-2" d="M272.17,36.58h1.79l-.21.95h.03c.61-.75,1.4-1.13,2.39-1.13,1.31,0,1.99.63,1.98,1.83,0,.29-.16.94-.2,1.17l-.86,4h-1.87l.85-4c.04-.21.12-.65.12-.83,0-.41-.46-.7-.9-.7-1.13,0-1.71.95-1.92,1.9l-.78,3.63h-1.87l1.45-6.82Z"/><path class="cls-2" d="M284.57,38.94c0-.8-.42-1.14-1.25-1.14-1.42,0-1.92,1.72-1.93,2.89,0,.81.34,1.48,1.29,1.48.85,0,1.31-.59,1.52-1.27h1.87c-.57,1.7-1.75,2.68-3.53,2.68-1.91,0-3.03-.92-3.02-2.93,0-2.32,1.41-4.26,3.87-4.26,1.66,0,3.02.74,3.05,2.55h-1.87Z"/><path class="cls-2" d="M289.35,40.45c-.01.09-.01.16-.02.23v.17c0,.79.48,1.33,1.5,1.33.75,0,1.11-.5,1.4-.94h1.87c-.6,1.53-1.58,2.35-3.55,2.35-1.83,0-3.03-1.03-3.02-2.98,0-2.18,1.46-4.21,3.78-4.21,1.9,0,3.18,1,3.17,2.98,0,.36-.04.71-.11,1.07h-5.03ZM292.68,39.26c0-.7-.17-1.45-1.26-1.45s-1.59.67-1.86,1.45h3.13Z"/></svg>