<?xml version="1.0" encoding="utf-8"?>
<!-- Generator: Adobe Illustrator 15.1.0, SVG Export Plug-In . SVG Version: 6.00 Build 0)  -->
<!DOCTYPE svg PUBLIC "-//W3C//DTD SVG 1.1//EN" "http://www.w3.org/Graphics/SVG/1.1/DTD/svg11.dtd">
<svg version="1.1" id="レイヤー_1" xmlns="http://www.w3.org/2000/svg" xmlns:xlink="http://www.w3.org/1999/xlink" x="0px"
	 y="0px" width="356.918px" height="49.11px" viewBox="0 0 356.918 49.11" enable-background="new 0 0 356.918 49.11"
	 xml:space="preserve">
<polygon fill="#231F20" points="80.66,15.891 87.332,15.891 93.531,42.688 99.73,15.891 106.433,15.891 106.433,45.681 
	101.214,45.681 101.214,20.122 95.316,45.681 91.746,45.681 85.847,20.196 85.847,45.681 80.66,45.681 "/>
<g>
	<defs>
		<rect id="SVGID_1_" y="0" width="356.918" height="49.11"/>
	</defs>
	<clipPath id="SVGID_2_">
		<use xlink:href="#SVGID_1_"  overflow="visible"/>
	</clipPath>
	<path clip-path="url(#SVGID_2_)" fill="#231F20" d="M128.464,19.075c2.528,3.18,3.301,7.483,3.301,11.711
		c0,9.246-3.84,15.457-11.453,15.457c-7.715,0-11.492-6.324-11.492-15.379c0-9.133,3.808-15.531,11.492-15.531
		C122.566,15.333,125.972,15.931,128.464,19.075 M114.382,30.786c0,10.367,2.153,13.063,5.93,13.063
		c4.445,0,5.895-4.191,5.895-13.063c0-9.766-1.852-13.059-5.895-13.059C116.367,17.727,114.382,20.645,114.382,30.786"/>
	<path clip-path="url(#SVGID_2_)" fill="#231F20" d="M139.41,32.657v13.023h-5.223v-29.79h11.992c4.988,0,8.055,2.997,8.055,8.047
		c0,1.086-0.168,2.583-0.875,4.043c-1.114,2.32-2.766,2.992-5.258,3.594c4.348,0.898,6.133,2.69,6.266,12.051v2.055h-5.492v-4.375
		c0-0.523-0.098-4.156-0.672-5.801c-0.91-2.621-3.032-2.848-3.942-2.848H139.41z M139.41,30.263h4.918
		c1.414,0,2.324-0.523,3.101-1.309c1.078-1.16,1.246-3.855,1.246-4.867c0-2.543-0.707-5.801-4.382-5.801h-4.883V30.263z"/>
	<rect x="158.171" y="15.891" clip-path="url(#SVGID_2_)" fill="#231F20" width="5.223" height="29.79"/>
	<polygon clip-path="url(#SVGID_2_)" fill="#231F20" points="168.039,15.891 174.207,15.891 184.479,41.38 184.479,15.891 
		189.702,15.891 189.702,45.681 183.504,45.681 173.262,20.27 173.262,45.681 168.039,45.681 	"/>
	<path clip-path="url(#SVGID_2_)" fill="#231F20" d="M198.222,37.974l-1.953,7.671h-5.629l8.896-29.753h7.617l8.926,29.753h-5.625
		l-2.09-7.671H198.222z M198.898,35.579h8.895l-2.059-7.41l-2.392-8.945l-2.358,8.945L198.898,35.579z"/>
	<path clip-path="url(#SVGID_2_)" fill="#231F20" d="M237.738,30.001v9.207c-0.707,1.608-1.146,2.469-2.259,3.668
		c-1.18,1.233-3.469,3.367-8.187,3.367c-1.985,0-5.121-0.449-7.446-2.509c-3.772-3.327-4.582-8.12-4.582-12.909
		c0-5.613,1.146-8.719,3-11.266c2.121-2.918,5.457-4.226,8.828-4.226c5.692,0,9.704,3.629,10.446,9.207h-5.426
		c0.065-4.941-2.294-6.813-5.121-6.813c-0.574,0-3.574,0.075-4.888,2.844c-1.414,2.957-1.515,7.336-1.515,9.731
		c0,1.871,0.066,7.707,1.449,10.589c0.91,1.911,2.594,2.958,5.121,2.958c2.019,0,4.246-0.672,5.254-3.816v-7.638h-5.489v-2.394
		H237.738z"/>
	<path clip-path="url(#SVGID_2_)" fill="#231F20" d="M245.179,37.974l-1.952,7.671h-5.63l8.896-29.753h7.617l8.926,29.753h-5.625
		l-2.09-7.671H245.179z M245.852,35.579h8.897l-2.058-7.41l-2.392-8.945l-2.358,8.945L245.852,35.579z"/>
	<polygon clip-path="url(#SVGID_2_)" fill="#231F20" points="274.348,15.891 281.02,15.891 287.218,42.688 293.417,15.891 
		300.12,15.891 300.12,45.681 294.902,45.681 294.902,20.122 289.003,45.681 285.434,45.681 279.538,20.196 279.538,45.681 
		274.348,45.681 	"/>
	<rect x="305.238" y="15.891" clip-path="url(#SVGID_2_)" fill="#231F20" width="5.224" height="29.79"/>
	<polygon clip-path="url(#SVGID_2_)" fill="#231F20" points="320.253,43.286 332.262,43.286 332.262,45.681 315.555,45.681 
		315.555,15.931 320.253,15.931 	"/>
	<polygon clip-path="url(#SVGID_2_)" fill="#231F20" points="340.609,31.126 339.531,32.321 339.531,45.684 334.308,45.684 
		334.308,15.891 339.531,15.891 339.531,28.915 352.504,15.891 356.039,15.891 344.515,27.419 356.918,45.684 350.175,45.684 	"/>
	<path clip-path="url(#SVGID_2_)" fill="#EB1C24" d="M1.863,39.263c0.512-0.204,1.285-0.391,1.633-0.5
		c0.351-0.113,0.629-0.086,0.613,0.296c-0.012,0.278-0.074,0.25-0.024,0.54c0.071,0.417,0.418,0.258,0.747,0.063
		c0.437-0.262,1.683-0.824,2.086-0.898c0.398-0.074,1.46-0.289,1.472,0.723c0.004,0.461,0.313,0.422,0.688,0.238
		c0.636-0.313,1.457-0.906,2.019-0.996c0.676-0.117,2.184-0.117,1.863,1.418c-0.363,1.727-0.792,3.832-0.917,4.434
		c-0.125,0.598-0.219,1.25-1.458,1.25H9.062c0.094-0.414,0.949-4.629,1.012-4.922c0.238-1.086-1.625-1.168-1.871-0.023
		c-0.325,1.512-0.731,3.598-0.805,3.918C7.324,45.13,6.855,45.79,6.32,45.829c-0.539,0.035-1.449,0-1.727,0
		c0.09-0.438,0.91-4.461,1.012-4.922c0.289-1.285-1.727-0.961-1.902-0.25c-0.352,1.426-0.731,3.672-0.821,4.023
		c-0.086,0.348-0.433,1.148-1.132,1.148H0c0.125-0.59,1.082-5.301,1.168-5.715C1.277,39.595,1.285,39.485,1.863,39.263"/>
	<path clip-path="url(#SVGID_2_)" fill="#EB1C24" d="M16.632,39.075c0.965-0.34,4.621-1.199,5.114,1.569
		c0.328,1.825-0.996,3.923-3.207,4.806c-1.422,0.574-4.93,0.875-5.219-1.422C13.05,41.849,14.058,39.974,16.632,39.075
		 M15.929,44.181c-0.047,1.434,1.989,1.32,2.36,0.273c0.316-0.883,0.75-3.297,0.824-4.195c0.105-1.234-2.195-1.348-2.481,0.175
		C16.507,41.091,15.976,42.888,15.929,44.181"/>
	<path clip-path="url(#SVGID_2_)" fill="#EB1C24" d="M22.89,40.575c0.289-1.098,0.406-1.113,1.332-1.517
		c0.395-0.168,1.809-0.722,1.696,0.153c-0.125,0.965,0.328,0.609,0.785,0.285c0.8-0.563,1.82-1.426,1.687-0.047
		c-0.187,1.945-0.648,2.277-1.246,1.57c-0.629-0.738-1.5-0.523-1.652,0.301c-0.149,0.824-0.453,2.367-0.637,3.133
		c-0.258,1.098-0.508,1.387-1.371,1.375c-0.859-0.016-1.524,0-1.66,0C21.972,45.165,22.843,40.751,22.89,40.575"/>
	<path clip-path="url(#SVGID_2_)" fill="#EB1C24" d="M30.414,39.349c0.484-0.23,1.062-0.454,1.379-0.574
		c0.511-0.191,0.71,0.034,0.648,0.413c-0.063,0.371-1,4.974-1.125,5.524c-0.121,0.547-0.492,1.117-1.238,1.117h-1.836
		c0.16-0.758,0.949-4.656,1.078-5.277C29.453,39.915,29.75,39.661,30.414,39.349"/>
	<path clip-path="url(#SVGID_2_)" fill="#EB1C24" d="M29.875,37.77c0.144-0.733,0.093-1.121,1.277-1.479
		c0.894-0.277,0.883-0.262,1.348-0.387c0.46-0.125,0.621-0.048,0.468,0.711c-0.172,0.823-0.109,1.004-1.371,1.398
		C29.796,38.575,29.726,38.536,29.875,37.77"/>
	<path clip-path="url(#SVGID_2_)" fill="#EB1C24" d="M32.511,45.829c0.324-1.539,0.961-4.771,1.098-5.422
		c0.137-0.648,0.367-0.918,1.336-1.263c1.422-0.495,1.73-0.679,1.628,0.121c-0.093,0.75,0.759,0.489,0.993,0.333
		c0.262-0.176,1.285-0.665,1.785-0.79c0.5-0.121,2.317-0.175,2.047,1.29c-0.285,1.559-0.688,3.957-0.859,4.617
		c-0.141,0.531-0.387,1.113-1.024,1.113h-2.012c0.168-0.844,0.895-4.31,1.016-5.021c0.184-1.062-1.703-1.55-2.363,0.504
		c-0.211,0.664-0.613,3.017-0.754,3.703c-0.102,0.478-0.344,0.813-1.242,0.813H32.511z"/>
	<path clip-path="url(#SVGID_2_)" fill="#EB1C24" d="M46.035,38.782c1.109-0.184,1.937-0.095,2.48-0.095
		c1.051,0,1.871,0.071,1.711,0.985c-0.16,0.91-0.812,4.394-1.035,5.168c-0.227,0.772-0.438,0.988-1.574,0.988
		c-1.137,0-1.196-0.293-1.211-0.5c-0.028-0.328-0.196-0.621-0.785-0.211c-1.539,1.059-3.836,1.069-4.008-1.25
		C41.429,41.427,43.937,39.122,46.035,38.782 M44.464,43.773c-0.257,1.267,1.704,1.317,2.039,0.282
		c0.192-0.582,0.668-2.618,0.852-3.559c0.363-1.859-1.66-1.81-2.148-0.313C45.085,40.559,44.679,42.716,44.464,43.773"/>
	<path clip-path="url(#SVGID_2_)" fill="#EB1C24" d="M57.168,38.688c1.285,0.138,1.734,0.2,1.535,1.185
		c-0.278,1.358-0.844,4.477-1.047,5.332c-0.512,2.133-2.035,2.906-4.649,3.695c-3.312,0.995-4.027-1.841-2.929-2.012
		c0.871-0.137,1.718-0.325,1.984-0.375c0.262-0.051,0.563-0.141,0.461,0.425c-0.227,1.235,1.172,2.185,1.945-0.237
		c0.391-1.22,0.532-2.242-0.886-1.273c-1.235,0.852-3.344,0.336-3.27-1.911c0.09-2.519,2.438-4.304,4.531-4.729
		C56.078,38.536,56.906,38.661,57.168,38.688 M53.023,43.641c-0.289,1.599,1.758,1.461,2.16,0.25
		c0.305-0.921,0.61-2.319,0.774-3.746c0.16-1.421-1.825-1.358-2.297,0.341C53.531,40.938,53.308,42.044,53.023,43.641"/>
	<path clip-path="url(#SVGID_2_)" fill="#EB1C24" d="M63.085,38.782c1.11-0.184,1.942-0.095,2.485-0.095
		c1.051,0,1.871,0.075,1.711,0.985c-0.164,0.91-0.813,4.395-1.035,5.168c-0.231,0.773-0.442,0.988-1.575,0.988
		c-1.136,0-1.195-0.293-1.211-0.5c-0.027-0.328-0.195-0.621-0.789-0.211c-1.535,1.059-3.832,1.069-4.003-1.25
		C58.48,41.427,60.988,39.122,63.085,38.782 M61.488,43.766c-0.274,1.263,1.734,1.325,2.07,0.29
		c0.192-0.582,0.668-2.618,0.852-3.559c0.359-1.859-1.66-1.81-2.149-0.313C62.14,40.559,61.718,42.712,61.488,43.766"/>
	<path clip-path="url(#SVGID_2_)" fill="#EB1C24" d="M9.406,34.032H1.472l2.696-13.09c0,0,3.496-0.004,4.91,0
		c2.086,0,3.863-1.148,6.851-5.769c3.09-4.774,7.719-12.239,8.797-13.91c1.211-1.879,3.242-1.735,3.211,0.929
		c-0.047,3.946,0.004,8.797-0.047,11.27c-0.121,5.566,4.922,4.926,7.11,1.523c2.902-4.511,7.996-12.683,8.75-13.886
		c0.832-1.333,3.164-1.704,3.164,1.246v8.371c0,7.422,4.73,10.226,9.035,10.226h14.535l-2.504,13.09h-8.727
		c-12.41,0-12.05-8.305-13.386-12.363c-0.617-1.879-2.403-2.735-4.09,0.027c-1.965,3.223-5.234,8.379-5.875,9.246
		c-3.305,4.469-8.609,3.945-8.656-0.902c-0.047-4.856,0-7.063,0-7.918c0-2-2.473-3.57-4.387-0.398
		C19.597,27.13,16.593,34.032,9.406,34.032"/>
</g>
</svg>
