<?xml version="1.0" encoding="UTF-8"?>
<svg width="404.033846px" height="100px" viewBox="0 0 404.033846 100" version="1.1" xmlns="http://www.w3.org/2000/svg" xmlns:xlink="http://www.w3.org/1999/xlink">
    <title>Logo/Seibu Prince - wide</title>
    <g id="Logo/Seibu-Prince---wide" stroke="none" stroke-width="1" fill="none" fill-rule="evenodd">
        <path d="M377.522439,98.1583124 L377.522439,96.3181927 C379.363984,97.0907294 381.6032,97.5368622 383.466125,97.5368622 C386.650345,97.5368622 388.567433,96.4664285 388.567433,94.6761959 C388.567433,92.8375015 387.421456,91.8411857 383.517438,90.7222903 C379.140205,89.4537337 377.498208,87.9357418 377.498208,85.350167 C377.498208,82.4638444 380.035321,80.7234988 384.238662,80.7234988 C385.979008,80.7234988 387.918902,81.0712828 389.362775,81.642846 L389.362775,83.434504 C387.794897,82.7888229 385.90489,82.4153827 384.288549,82.4153827 C381.228335,82.4153827 379.388215,83.484391 379.388215,85.3002799 C379.388215,86.9166205 380.407336,88.0340906 384.386898,89.2057238 C388.789787,90.472855 390.456015,91.9409598 390.456015,94.5521909 C390.456015,97.4869752 387.869014,99.2287461 383.541669,99.2287461 C381.502001,99.2287461 379.239979,98.831075 377.522439,98.1583124 L377.522439,98.1583124 Z M368.056726,82.5878494 L368.056726,98.9294238 L366.16672,98.9294238 L366.16672,82.5878494 L359.524614,82.5878494 L359.524614,81.0228211 L374.721637,81.0228211 L374.721637,82.5878494 L368.056726,82.5878494 Z M345.035988,82.5878494 L345.035988,90.1008401 L349.860779,90.1008401 C353.143347,90.1008401 355.060435,88.6826223 355.060435,86.3450574 C355.060435,83.9818363 353.094885,82.5878494 349.76243,82.5878494 L345.035988,82.5878494 Z M349.836548,81.0228211 C354.287899,81.0228211 357.000329,83.0111767 357.000329,86.3450574 C357.000329,88.9064014 355.18444,90.770752 352.099995,91.3437405 L357.248339,98.9294238 L355.134553,98.9294238 L350.209988,91.6174066 L345.035988,91.6174066 L345.035988,98.9294238 L343.12175,98.9294238 L343.12175,81.0228211 L349.836548,81.0228211 Z M327.812125,97.511206 C333.084474,97.511206 336.716252,94.4524168 336.716252,89.9754098 C336.716252,85.4984028 333.084474,82.4396135 327.812125,82.4396135 C322.488463,82.4396135 318.856686,85.4984028 318.856686,89.9754098 C318.856686,94.4524168 322.488463,97.511206 327.812125,97.511206 L327.812125,97.511206 Z M327.812125,80.7234988 C334.277488,80.7234988 338.680377,84.4778561 338.680377,89.9754098 C338.680377,95.4715381 334.277488,99.2287461 327.812125,99.2287461 C321.343912,99.2287461 316.916792,95.4715381 316.916792,89.9754098 C316.916792,84.4778561 321.343912,80.7234988 327.812125,80.7234988 L327.812125,80.7234988 Z M300.636507,98.1583124 L300.636507,96.3181927 C302.478052,97.0907294 304.715843,97.5368622 306.580194,97.5368622 C309.762988,97.5368622 311.680076,96.4664285 311.680076,94.6761959 C311.680076,92.8375015 310.535525,91.8411857 306.630081,90.7222903 C302.252848,89.4537337 300.612276,87.9357418 300.612276,85.350167 C300.612276,82.4638444 303.147964,80.7234988 307.351305,80.7234988 C309.093076,80.7234988 311.03297,81.0712828 312.475418,81.642846 L312.475418,83.434504 C310.908965,82.7888229 309.017533,82.4153827 307.402618,82.4153827 C304.340978,82.4153827 302.502283,83.484391 302.502283,85.3002799 C302.502283,86.9166205 303.521405,88.0340906 307.500966,89.2057238 C311.903855,90.472855 313.570083,91.9409598 313.570083,94.5521909 C313.570083,97.4869752 310.983083,99.2287461 306.654312,99.2287461 C304.616069,99.2287461 302.352622,98.831075 300.636507,98.1583124 L300.636507,98.1583124 Z M283.783234,98.9294238 L283.783234,81.0228211 L296.592805,81.0228211 L296.592805,82.5878494 L285.697472,82.5878494 L285.697472,89.0802934 L294.949383,89.0802934 L294.949383,90.6481724 L285.697472,90.6481724 L285.697472,97.3615448 L297.038938,97.3615448 L297.038938,98.9294238 L283.783234,98.9294238 Z M267.177971,82.5878494 L267.177971,90.1008401 L272.004187,90.1008401 C275.28533,90.1008401 277.202419,88.6826223 277.202419,86.3450574 C277.202419,83.9818363 275.236869,82.5878494 271.904413,82.5878494 L267.177971,82.5878494 Z M271.979957,81.0228211 C276.431307,81.0228211 279.142313,83.0111767 279.142313,86.3450574 C279.142313,88.9064014 277.327849,90.770752 274.241978,91.3437405 L279.390323,98.9294238 L277.276537,98.9294238 L272.351972,91.6174066 L267.177971,91.6174066 L267.177971,98.9294238 L265.263733,98.9294238 L265.263733,81.0228211 L271.979957,81.0228211 Z M392.270478,62.4862162 C393.936706,61.8134536 396.646286,60.5705533 396.646286,58.5551162 C396.646286,57.0642059 395.179606,55.9695413 393.165595,55.9695413 C391.150157,55.9695413 389.683478,57.0642059 389.683478,58.5551162 C389.683478,60.0716827 390.628481,61.0679985 392.270478,62.4862162 L392.270478,62.4862162 Z M391.847151,64.2507927 C389.931488,64.9477861 387.817702,66.0923378 387.817702,68.0080007 C387.817702,69.9977816 389.981375,71.3903432 393.06582,71.3903432 C395.179606,71.3903432 397.019726,70.7674676 398.363826,69.6742284 L391.847151,64.2507927 Z M402.441736,63.4041381 C402.665515,65.7174722 402.069721,67.8070272 400.625848,69.6742284 L404.033846,72.6332436 L401.696281,72.6332436 L399.532608,70.8415855 C397.916268,72.1856854 395.651395,72.9325659 393.06582,72.9325659 C388.938023,72.9325659 385.977582,70.9670159 385.977582,68.1804674 C385.977582,65.5948925 388.538926,64.1267877 390.776717,63.2074405 C388.985059,61.6894487 387.943132,60.49501 387.943132,58.5807724 C387.943132,56.1676642 390.155267,54.4258932 393.165595,54.4258932 C396.200153,54.4258932 398.413713,56.142008 398.413713,58.4325366 C398.413713,61.1920035 395.329267,62.8083441 393.41503,63.5566499 L399.407178,68.4541336 C400.453381,67.0116849 400.900939,65.2713393 400.727047,63.4041381 L402.441736,63.4041381 Z M361.936297,71.8621322 L361.936297,70.0220125 C363.777842,70.7945492 366.017058,71.240682 367.881409,71.240682 C371.065628,71.240682 372.981291,70.1702483 372.981291,68.3785903 C372.981291,66.5398959 371.83674,65.5450055 367.931296,64.4261101 C363.555488,63.1561281 361.912066,61.6395616 361.912066,59.0525614 C361.912066,56.1676642 364.449179,54.4258932 368.65252,54.4258932 C370.394291,54.4258932 372.334185,54.7751026 373.776634,55.3466658 L373.776634,57.1383238 C372.208755,56.4926427 370.318748,56.1192025 368.703833,56.1192025 C365.643618,56.1192025 363.803498,57.1882108 363.803498,59.0040997 C363.803498,60.6204403 364.82262,61.7379104 368.802181,62.9095435 C373.205071,64.1766748 374.871298,65.6433542 374.871298,68.2560107 C374.871298,71.1907949 372.284298,72.9325659 367.955527,72.9325659 C365.915859,72.9325659 363.653837,72.5334694 361.936297,71.8621322 L361.936297,71.8621322 Z M347.022918,72.6332436 L347.022918,54.7237902 L348.937155,54.7237902 L348.937155,71.0653646 L358.538276,71.0653646 L358.538276,72.6332436 L347.022918,72.6332436 Z M328.878283,72.6332436 L328.878283,54.7237902 L341.686428,54.7237902 L341.686428,56.2916692 L330.79252,56.2916692 L330.79252,62.7841132 L340.045857,62.7841132 L340.045857,64.3519922 L330.79252,64.3519922 L330.79252,71.0653646 L342.133986,71.0653646 L342.133986,72.6332436 L328.878283,72.6332436 Z M317.619487,56.2916692 L317.619487,72.6332436 L315.728055,72.6332436 L315.728055,56.2916692 L309.087375,56.2916692 L309.087375,54.7237902 L324.284397,54.7237902 L324.284397,56.2916692 L317.619487,56.2916692 Z M296.515836,71.2150258 C301.789611,71.2150258 305.419963,68.1562366 305.419963,63.6792296 C305.419963,59.2022226 301.789611,56.142008 296.515836,56.142008 C291.192175,56.142008 287.561822,59.2022226 287.561822,63.6792296 C287.561822,68.1562366 291.192175,71.2150258 296.515836,71.2150258 L296.515836,71.2150258 Z M296.515836,54.4258932 C302.982624,54.4258932 307.384088,58.1816759 307.384088,63.6792296 C307.384088,69.1753579 302.982624,72.9325659 296.515836,72.9325659 C290.047623,72.9325659 285.620503,69.1753579 285.620503,63.6792296 C285.620503,58.1816759 290.047623,54.4258932 296.515836,54.4258932 L296.515836,54.4258932 Z M279.166543,72.6332436 L279.166543,64.3519922 L267.177971,64.3519922 L267.177971,72.6332436 L265.263733,72.6332436 L265.263733,54.7237902 L267.177971,54.7237902 L267.177971,62.7841132 L279.166543,62.7841132 L279.166543,54.7237902 L281.05655,54.7237902 L281.05655,72.6332436 L279.166543,72.6332436 Z" id="Fill-1" fill="#BE694C"></path>
        <path d="M84.5870678,27.7792208 C84.5870678,33.9295822 84.3946463,39.8404858 84.1537631,41.7632755 L91.8720035,41.7632755 C91.5356222,40.3208268 91.344626,33.5447392 91.344626,27.7792208 L91.344626,19.3212267 C91.344626,12.4981027 91.5855092,7.27278986 91.7765054,5.44692358 L84.058265,5.44692358 C84.4416827,6.98487027 84.5870678,12.4510663 84.5870678,19.3212267 L84.5870678,27.7792208 Z M156.203501,5.44692358 C156.525629,7.12170334 156.86201,12.8971992 156.86201,19.3397562 L156.86201,24.4296613 C156.86201,30.2236866 156.447235,33.1983805 153.979964,35.5117146 C152.095658,37.4059974 149.266349,37.6098217 148.136051,37.6098217 C146.295932,37.6098217 143.918457,37.3860426 141.843155,35.645697 C139.800637,33.9666412 138.534931,31.7131716 138.534931,25.6682856 L138.534931,19.3397562 C138.534931,12.5123561 138.768687,7.80871938 139.043779,5.44977427 L131.151646,5.44977427 C131.515109,7.23145487 131.820133,12.1232371 131.820133,19.3397562 L131.820133,26.9054847 C131.820133,34.3942445 133.988082,37.2705897 136.107569,39.0950306 C139.260431,41.9015339 144.356038,42.3191598 147.112654,42.3191598 C151.484185,42.3191598 154.924967,41.2843597 157.33665,39.2418411 C161.835037,35.5730044 162.211328,29.9371923 162.211328,24.4795484 L162.211328,19.3397562 C162.211328,12.6206823 162.499248,7.35403449 162.805697,5.44692358 L156.203501,5.44692358 Z M117.221755,15.1221619 C117.221755,11.4191169 114.757334,9.209833 110.628111,9.209833 C109.21702,9.209833 107.211561,9.2996297 106.796785,9.37517296 C106.769704,9.38087433 106.681333,9.41793329 106.681333,9.54478895 L106.681333,20.0624058 C106.681333,20.166456 106.765428,20.2277458 106.832419,20.2348725 C107.790251,20.3303706 112.25728,20.3645789 112.797486,20.3645789 C113.679774,20.3645789 114.346835,20.3317959 114.899869,19.9155953 C116.613133,18.6912244 117.221755,16.6358777 117.221755,15.1221619 L117.221755,15.1221619 Z M119.600655,31.4694377 C119.600655,29.7903819 119.301333,27.9887465 117.130533,26.1928124 L117.124832,26.1885364 C115.794985,24.9755682 114.061766,24.3840503 111.506124,24.2714481 C110.360147,24.2272624 107.41396,24.2272624 106.799636,24.2643213 C106.709839,24.2700227 106.681333,24.345566 106.681333,24.4040051 L106.681333,27.7022522 C106.681333,33.986596 106.782532,36.6576915 106.853799,36.9684166 C107.232941,37.3147753 109.956774,37.9519043 112.891558,37.9519043 C116.231141,37.9519043 119.600655,35.9464447 119.600655,31.4694377 L119.600655,31.4694377 Z M126.212828,30.8023764 C126.212828,34.5524578 123.898068,41.7632755 112.701988,41.7632755 L99.6258774,41.7632755 C99.8696113,39.8632913 100.07201,33.647364 100.07201,27.7507139 L100.07201,19.3625617 C100.07201,12.2415407 99.8924168,7.62627529 99.4676642,5.44692358 L112.000718,5.44692358 C121.908288,5.44692358 122.978721,11.3122161 122.978721,13.8336505 C122.978721,17.4925097 120.73808,20.0438763 118.537348,21.2825007 C123.49042,22.901692 126.212828,26.2712064 126.212828,30.8023764 L126.212828,30.8023764 Z M68.3780505,37.5214503 C66.0476123,37.5214503 63.0016511,37.4615858 61.8228912,37.3318795 C61.362505,37.2805671 60.8565077,37.1109511 60.8009193,37.0282811 C60.5771402,36.6990265 60.5201264,34.4740638 60.5201264,27.2204858 L60.5201264,24.6676938 C60.5201264,24.5992773 60.5671628,24.5493902 60.6327286,24.5493902 C61.7459226,24.5493902 68.5533679,24.6448883 70.1326495,24.7403864 C72.0867968,24.8786448 72.9548316,25.1508856 73.9383193,25.6825391 L74.4015562,19.8657083 C73.6218928,20.1393744 72.6982696,20.2605287 69.9017437,20.3560268 C68.442191,20.3987871 62.4628709,20.4030632 60.6412807,20.4030632 C60.5856922,20.4030632 60.5201264,20.3560268 60.5201264,20.2904609 L60.5115743,9.83413388 C60.5115743,9.73435976 60.592819,9.72010632 60.6412807,9.72010632 C60.6940184,9.72010632 68.868369,9.83698457 70.1782606,9.91110248 C70.5759317,9.93390799 73.7330697,10.1790672 74.7464896,10.9615814 L75.2168533,5.44692358 L53.215236,5.44692358 C53.695577,7.06754025 53.8780211,11.9878294 53.8780211,19.3525843 L53.8780211,27.7464379 C53.8780211,35.3449493 53.5060062,39.9245811 53.389128,41.7632755 L75.4862434,41.7632755 L76.7348451,36.3141835 C74.8647932,37.2249786 72.4374315,37.5214503 68.3780505,37.5214503 L68.3780505,37.5214503 Z M162.274043,54.7367609 L162.275468,54.7267835 L155.024741,54.7267835 C155.633363,61.6867405 155.745965,77.6363452 155.80583,84.9326836 C149.440241,79.3139756 132.649684,61.5427807 126.306901,55.4252022 C125.078254,54.2521437 124.552302,53.901509 124.318545,53.901509 C123.966485,53.901509 123.791168,54.1352655 123.791168,57.1812266 C123.791168,67.4323041 123.926575,93.6643438 123.340759,98.9937068 L130.889383,98.9937068 C130.307843,94.45541 129.833203,80.2789338 129.712049,68.5511995 C137.279202,75.8717687 149.421712,89.3968625 155.268475,94.9043935 C159.305051,98.7129139 160.71044,100 161.177953,100 C161.587027,100 161.76377,99.532487 161.76377,95.3733318 L161.76377,86.7628259 C161.703905,72.5407387 161.807955,58.3842174 162.274043,54.7367609 L162.274043,54.7367609 Z M194.754793,99.702103 C199.729245,99.702103 204.81915,98.7086379 207.101127,97.7721866 L208.388213,91.1029998 C205.228224,93.3835509 200.430515,94.2629885 195.632805,94.2629885 C182.05925,94.2629885 176.441967,84.6661441 176.441967,75.3629208 C176.441967,70.4497584 177.672039,65.88438 181.35798,62.5504993 C183.639957,60.5022793 187.090716,58.630802 192.824877,58.630802 C199.787684,58.630802 204.994468,60.9127785 207.56864,63.5453897 L208.56353,56.115069 C206.164676,55.5891169 201.308527,53.8316671 193.469132,53.8316671 C184.867178,53.8316671 179.076004,56.2305219 174.804246,60.0932054 C169.305267,65.1831105 168.13506,71.7952835 168.13506,76.1240547 C168.13506,81.5061554 169.77278,88.352085 175.390063,93.3835509 C180.713725,98.0073684 187.384337,99.702103 194.754793,99.702103 L194.754793,99.702103 Z M77.0427195,76.7383782 C82.4248203,76.7383782 86.7550168,74.4891846 86.7550168,68.2889361 C86.7550168,62.0886877 82.4248203,58.9885634 77.0427195,58.9885634 C75.4634379,58.9885634 71.0149378,59.0470026 70.3706821,59.2237453 C70.1369256,59.2821844 70.1369256,59.3990626 70.1369256,59.6328191 L70.1369256,67.8071697 L70.1369256,69.3921528 L70.1369256,76.0926971 C70.1369256,76.327879 70.1369256,76.4447572 70.3706821,76.5031963 C71.0149378,76.6785137 75.4634379,76.7383782 77.0427195,76.7383782 L77.0427195,76.7383782 Z M101.283553,98.6501988 C100.268708,99.0008335 97.9225908,99.1177118 96.0496881,99.1177118 C92.5390647,99.1177118 90.8970678,98.1826858 88.9144137,96.0760267 C85.7701038,92.7991597 81.2717166,84.6661441 79.1151704,81.5061554 C78.9612332,81.2225074 78.7403048,81.107059 78.4609373,81.0999323 C75.6872169,81.0970816 72.0126789,81.0871042 70.3706821,81.0414931 C70.1953647,81.0414931 70.1369256,81.1597967 70.1369256,81.3921279 L70.1369256,82.9728349 C70.1369256,89.9912311 70.4291212,96.1929049 70.838195,98.9423944 L62.2961056,98.9423944 C62.6481657,96.4851005 62.9988004,89.4068399 62.9988004,81.9195053 L62.9988004,71.6242422 C62.9988004,63.2603208 62.8234831,56.9460448 62.1207882,54.7225074 L77.5116579,54.7225074 C82.2495029,54.7225074 85.9953082,55.2456088 88.4511767,56.7080123 C91.4942872,58.5196251 94.0100202,61.9133703 94.0100202,66.475898 C94.0100202,71.3904857 91.435848,75.5439395 86.8134559,78.5856246 C86.8134559,78.5856246 86.4328889,78.8450373 85.8328189,79.1970974 C88.9600247,83.970576 92.5034311,89.4054145 95.9670181,93.5004292 C98.4300134,96.4266614 100.089114,98.0658075 101.283553,98.6501988 L101.283553,98.6501988 Z M225.084698,93.8524893 C224.557321,93.7926248 223.91449,93.6173074 223.739173,93.4419901 C223.445552,93.2068082 223.330099,91.6275266 223.330099,81.2709736 L223.330099,78.0525458 C223.330099,77.9356675 223.445552,77.8173639 223.56243,77.8173639 C224.909381,77.8173639 233.384479,77.9356675 235.314395,78.0525458 C237.773115,78.2278631 238.825019,78.5799232 239.819909,79.1058753 L240.345861,72.492277 C239.644592,72.7260335 238.474384,72.9027762 235.0222,73.0196544 C233.090858,73.0780936 224.675624,73.0780936 223.56243,73.0780936 C223.445552,73.0780936 223.330099,72.9612153 223.330099,72.7858979 L223.330099,59.7953084 C223.330099,59.6784302 223.503991,59.6185657 223.56243,59.6185657 C227.366675,59.6185657 233.442918,59.7368693 235.372834,59.8537475 C238.591262,60.1473685 239.936787,60.4980032 240.8148,61.0239553 L241.352155,54.7225074 L215.255523,54.7225074 C215.723036,56.4799572 216.015231,62.0188458 216.015231,71.6156901 L216.015231,81.913804 C216.015231,90.4587441 215.606157,96.7758708 215.43084,98.9423944 L241.732722,98.9423944 L243.155215,92.7407206 C241.165434,93.6757466 238.180763,94.0862458 233.149297,94.0862458 C230.692003,94.0862458 226.66398,94.0278067 225.084698,93.8524893 L225.084698,93.8524893 Z M106.524545,81.9166546 C106.524545,89.4054145 106.290788,96.6019788 105.997167,98.9423944 L114.539257,98.9423944 C114.130183,97.18637 113.896426,88.9364762 113.896426,81.9166546 L113.896426,71.6185408 C113.896426,63.3116332 114.188622,56.9488955 114.422378,54.7239328 L105.880289,54.7239328 C106.349227,56.5968354 106.524545,63.2531941 106.524545,71.6185408 L106.524545,81.9166546 Z M51.0629658,46.1419337 C48.4132504,44.0424013 45.883264,42.2635714 40.7905082,41.3670297 C39.3409328,37.2933952 35.7732956,33.4349877 27.6203252,28.9166457 L23.117662,26.3823832 C14.0139869,21.3152836 12.4161757,18.2237115 12.3349311,13.5899166 C12.2365823,7.9441271 16.9587486,4.85540563 24.0256065,4.732826 C31.9704766,4.59314224 37.1430517,7.73745216 39.018805,9.64313772 L39.6530833,1.54147972 C38.7451389,1.48446594 37.4680302,1.33908081 34.6985859,0.952812456 C32.3567449,0.626408571 27.8526564,-0.0549060879 24.5230517,0.00353303553 C10.2525028,0.252968319 4.16913259,6.65276501 4.32164445,15.4157828 C4.42426925,21.3138583 7.42034334,26.7401447 17.6985023,32.4600521 L22.4947865,35.1582292 C26.1137361,37.1964718 28.5738807,38.9738763 30.2173029,40.7555569 C25.6305443,40.805444 21.4941947,40.9964401 19.401789,40.9964401 C18.0591145,40.9964401 16.71644,40.9964401 15.6616851,40.9137701 C16.1420262,43.3739147 16.4883849,50.2440751 16.5895843,59.4518004 C9.88761462,58.5467066 2.91910548,54.9206303 0.630002258,52.2181772 L0,60.4894512 C3.1343325,62.3737566 10.8454461,65.2828846 18.9471041,65.1417755 C23.8887734,65.0548295 29.295105,63.8632415 33.51555,61.2619879 C37.5934605,58.6821144 39.7514321,55.2356314 40.8090377,52.1112763 C39.3865439,50.6702531 37.0418522,49.5171494 33.1748926,49.2164017 C32.9910232,53.9300159 30.2956968,57.6444636 24.7739123,59.0527039 L24.7739123,46.9814616 C24.7739123,45.547565 24.7739123,45.3793744 25.2542534,45.2952791 C25.9255906,45.0415677 28.9943573,44.8733771 31.1052925,44.8733771 C44.9297085,44.8733771 48.2379331,53.3185431 48.2379331,58.5823403 C48.2379331,67.7530066 40.1419764,70.9700091 31.4830088,71.2878609 C31.8478969,72.0860538 32.7415879,74.6103389 33.0152541,75.4890324 C46.0500293,75.5681704 56.1685497,68.6295935 56.1685497,57.3850509 C56.1685497,52.1226791 53.3420916,48.0561713 51.0629658,46.1419337 L51.0629658,46.1419337 Z M24.7739123,74.9866298 C24.7739123,85.3517348 25.15733,95.3191687 25.5407476,98.9423944 L15.8526812,98.9423944 C16.2375243,95.65555 16.6209419,85.6895415 16.6209419,74.7329185 L16.6209419,69.3337136 C17.2024825,69.3622205 17.788299,69.376474 18.3783917,69.376474 C20.5620194,69.376474 22.7057375,69.1826271 24.7739123,68.8277163 L24.7739123,74.9866298 Z" id="Fill-3" fill="#AD996A"></path>
    </g>
</svg>