<?xml version="1.0" encoding="utf-8"?>
<!-- Generator: Adobe Illustrator 22.0.1, SVG Export Plug-In . SVG Version: 6.00 Build 0)  -->
<svg version="1.1" id="レイヤー_1" xmlns="http://www.w3.org/2000/svg" xmlns:xlink="http://www.w3.org/1999/xlink" x="0px"
	 y="0px" viewBox="0 0 180 70" style="enable-background:new 0 0 180 70;" xml:space="preserve">
<style type="text/css">
	.st0{fill:#005EAC;}
</style>
<g>
	<path class="st0" d="M150.9,31.2c1,1.3,2.6,0,4.4-1.4c1.7-1.4,3-2.7,1.9-3.8c-1.1-1.1-3,0.6-4,1.4C151.6,28.7,150,29.9,150.9,31.2
		 M147.7,28.5c0,1.9,1.6,4.9,6.5,4.9c4.9,0,6.6-2.4,6.6-4.9c0-2.5-3.2-4.5-6.6-4.5C149.7,24,147.7,26.6,147.7,28.5 M163.7,28.5
		c0,4.3-5.3,6.5-9.6,6.5c-4.3,0-9.4-2-9.4-6.5c0-2.9,4.3-6.2,9.4-6.2C159.7,22.3,163.7,25,163.7,28.5"/>
	<path class="st0" d="M48.7,26.6c0.8,0,2.3,0.1,2.5,1.6H50c0-0.4-0.4-0.8-1.3-0.8c-0.7,0-1.2,0.2-1.2,0.7c0,1.2,3.7,0,3.7,2.2
		c0,1.3-1.3,1.6-2.4,1.6c-1.8,0-2.5-0.7-2.5-1.8h1.1c0,0.7,0.6,1,1.4,1c0.6,0,1.2-0.2,1.2-0.7c0-1.2-3.7-0.2-3.7-2.2
		C46.5,27.1,47.5,26.6,48.7,26.6"/>
	<polygon class="st0" points="52.1,26.8 53.1,26.8 53.1,28.7 56.3,28.7 56.3,26.8 57.3,26.8 57.3,31.8 56.3,31.8 56.3,29.5 
		53.1,29.5 53.1,31.8 52.1,31.8 	"/>
	<rect x="58.4" y="26.8" class="st0" width="1.1" height="5"/>
	<polygon class="st0" points="60.6,26.8 62.1,26.8 63.8,30.7 65.6,26.8 67.1,26.8 67.1,31.8 66.1,31.8 66.1,27.6 66.1,27.6 
		64.3,31.8 63.4,31.8 61.5,27.6 61.5,27.6 61.5,31.8 60.6,31.8 	"/>
	<rect x="68.2" y="26.8" class="st0" width="1.1" height="5"/>
	<polygon class="st0" points="69.9,31 73.4,27.5 70.2,27.5 70.2,26.8 74.8,26.8 74.8,27.5 71.3,31 74.8,31 74.8,31.8 69.9,31.8 	"/>
	<path class="st0" d="M75.4,26.8h1.1v2.8c0,0.7,0,1.5,1.4,1.5c1.4,0,1.4-0.8,1.4-1.5v-2.8h1.1v2.9c0,0.8,0,2.3-2.5,2.3
		c-2.4,0-2.5-1.5-2.5-2.3V26.8z"/>
	<path class="st0" d="M87.6,28.6c-0.1-0.8-0.7-1.2-1.6-1.2c-1,0-1.7,0.6-1.7,2c0,1,0.7,1.8,1.8,1.8c1.1,0,1.5-0.7,1.5-1.3h1.1
		c-0.1,1-0.8,2.1-2.9,2.1c-1.8,0-2.7-1.2-2.7-2.6c0-1.4,0.8-2.6,2.8-2.6c1.7,0,2.6,0.9,2.7,2H87.6z"/>
	<path class="st0" d="M93.9,29.3c0-1.1-0.7-1.9-1.9-1.9c-1.2,0-1.9,0.8-1.9,1.9c0,1.1,0.7,1.9,1.9,1.9
		C93.3,31.1,93.9,30.4,93.9,29.3 M89.1,29.3c0-1.4,0.8-2.6,3-2.6c2.1,0,3,1.2,3,2.6c0,1.4-0.8,2.6-3,2.6
		C90,31.9,89.1,30.7,89.1,29.3"/>
	<path class="st0" d="M98.4,29c0.6,0,0.9-0.2,0.9-0.7c0-0.5-0.3-0.7-0.9-0.7h-1.8V29H98.4z M95.5,26.8h3.2c1.3,0,1.7,0.6,1.7,1.4
		c0,0.7-0.4,1.1-0.8,1.2v0c0.6,0.1,0.7,0.6,0.7,1.4c0,0.2,0,0.8,0.2,1.1h-1.1c-0.1-0.1-0.1-0.4-0.1-0.8c0-0.7-0.1-1.2-0.9-1.2h-1.8
		v2h-1.1V26.8z"/>
	<path class="st0" d="M102.1,29.1h1.7c0.6,0,0.9-0.2,0.9-0.8c0-0.6-0.4-0.8-0.8-0.8h-1.8V29.1z M101.1,26.8h3.1
		c1.2,0,1.6,0.8,1.6,1.6c0,0.8-0.5,1.5-1.6,1.5h-2.1v1.9h-1.1V26.8z"/>
	<path class="st0" d="M111,29.3c0-1.1-0.7-1.9-1.9-1.9c-1.2,0-1.9,0.8-1.9,1.9c0,1.1,0.7,1.9,1.9,1.9C110.3,31.1,111,30.4,111,29.3
		 M106.2,29.3c0-1.4,0.8-2.6,3-2.6c2.1,0,2.9,1.2,2.9,2.6c0,1.4-0.8,2.6-2.9,2.6C107,31.9,106.2,30.7,106.2,29.3"/>
	<path class="st0" d="M115.4,29c0.6,0,0.9-0.2,0.9-0.7c0-0.5-0.3-0.7-0.9-0.7h-1.8V29H115.4z M112.6,26.8h3.2c1.3,0,1.7,0.6,1.7,1.4
		c0,0.7-0.4,1.1-0.8,1.2v0c0.6,0.1,0.7,0.6,0.7,1.4c0,0.2,0,0.8,0.2,1.1h-1.1c-0.1-0.1-0.1-0.4-0.1-0.8c0-0.7-0.1-1.2-0.9-1.2h-1.8
		v2h-1.1V26.8z"/>
	<path class="st0" d="M121.6,29.7l-0.9-2.1l-0.9,2.1H121.6z M120.2,26.8h1.3l2.2,5h-1.2l-0.5-1.2h-2.4l-0.5,1.2h-1.1L120.2,26.8z"/>
	<polygon class="st0" points="125.3,27.5 123.4,27.5 123.4,26.8 128.2,26.8 128.2,27.5 126.3,27.5 126.3,31.8 125.3,31.8 	"/>
	<rect x="128.7" y="26.8" class="st0" width="1.1" height="5"/>
	<path class="st0" d="M135.3,29.3c0-1.1-0.7-1.9-1.9-1.9c-1.2,0-1.9,0.8-1.9,1.9c0,1.1,0.7,1.9,1.9,1.9
		C134.6,31.1,135.3,30.4,135.3,29.3 M130.5,29.3c0-1.4,0.8-2.6,3-2.6c2.1,0,3,1.2,3,2.6c0,1.4-0.8,2.6-3,2.6
		C131.3,31.9,130.5,30.7,130.5,29.3"/>
	<polygon class="st0" points="137,26.8 138.2,26.8 141.2,30.5 141.2,30.5 141.2,26.8 142.2,26.8 142.2,31.8 141,31.8 138,28 138,28 
		138,31.8 137,31.8 	"/>
	<polygon class="st0" points="88.1,37 88.1,64.9 98.5,64.9 98.5,45.6 102.9,45.6 102.9,64.9 113.3,64.9 113.3,45.6 117.8,45.6 
		117.8,64.9 128.2,64.9 128.2,37 	"/>
	<rect x="72.9" y="37" class="st0" width="11.6" height="7.4"/>
	<polygon class="st0" points="62.2,46.8 62.2,37 51.7,37 51.7,64.9 62.2,64.9 62.2,54.5 73.4,54.5 73.4,64.9 83.9,64.9 83.9,46.8 	
		"/>
	<path class="st0" d="M45.2,51.7l-15.4-6.8c-0.5-0.2-0.4-0.8,0.1-0.8h18.5V37H25.2c-4.1,0-8.2,0.2-8.2,3.7v3.7
		c0,3.4,3.2,4.5,4.8,5.4l14.6,6.7c0.7,0.3,0.7,1.3-0.1,1.3H16.4v7.1h24c5.7,0,8.6-1,8.6-4.6v-3.7C48.9,54.1,47.2,52.7,45.2,51.7"/>
	<polygon class="st0" points="145.9,57.8 163.9,43.1 163.9,43.1 163.9,37 131.3,37 131.3,44.1 147.9,44.1 131.2,57.8 131.2,64.9 
		164.3,64.9 164.3,57.8 	"/>
	<polygon class="st0" points="77.6,4.8 75.1,4.8 75.1,4 81.4,4 81.4,4.8 78.9,4.8 78.9,12.1 77.6,12.1 	"/>
	<polygon class="st0" points="6.2,4.8 3.7,4.8 3.7,4 10,4 10,4.8 7.5,4.8 7.5,12.1 6.2,12.1 	"/>
	<path class="st0" d="M11.7,11.7c1.1,0,1.2-1.4,1.2-2.4c0-1-0.1-2.4-1.2-2.4c-1.1,0-1.2,1.4-1.2,2.4C10.5,10.3,10.6,11.7,11.7,11.7
		 M9.1,9.3c0-1.9,0.9-2.9,2.6-2.9c1.7,0,2.6,1,2.6,2.9c0,1.9-0.9,2.9-2.6,2.9C10,12.2,9.1,11.2,9.1,9.3"/>
	<path class="st0" d="M17.9,11.5c1,0,1.2-1.2,1.2-2.2c0-1-0.1-2.2-1.2-2.2c-1,0-1.2,1.3-1.2,2.2C16.7,10.2,16.9,11.5,17.9,11.5
		 M19.1,11.2L19.1,11.2c-0.2,0.4-0.6,1-1.5,1c-1.7,0-2.2-1.3-2.2-2.9c0-1.7,0.7-2.9,2.2-2.9c1,0,1.4,0.6,1.5,0.9h0V4h1.2v8.1h-1.2
		V11.2z"/>
	<path class="st0" d="M24.8,9.5c-0.5,0-1.9,0.1-1.9,1.2c0,0.5,0.3,0.8,0.7,0.8c0.4,0,1.2-0.4,1.2-1.3V9.5z M24.8,11.3L24.8,11.3
		c-0.2,0.3-0.7,0.9-1.7,0.9c-0.9,0-1.6-0.6-1.6-1.4c0-1.7,2.5-1.8,3.3-1.8V8.5c0-0.6,0-1.6-0.8-1.6c-0.8,0-0.9,0.6-0.9,1.2h-1.3
		c0.1-0.8,0.4-1.7,2.2-1.7c1.9,0,2.1,1,2.1,2.1v3.6h-1.2V11.3z"/>
	<polygon class="st0" points="29.2,12.1 27,6.5 28.3,6.5 29.8,10.5 29.8,10.5 31.2,6.5 32.4,6.5 29.4,14.6 28.4,14.6 	"/>
	<polygon class="st0" points="33.7,4 35.1,4 34.1,6.7 33.2,6.7 	"/>
	<polygon class="st0" points="71.3,10.7 72.6,10.7 71.7,13.3 70.8,13.3 	"/>
	<path class="st0" d="M38.4,7.6C38,7.4,37.5,7.1,37,7.1c-0.4,0-0.8,0.2-0.8,0.6c0,1,2.7,1.1,2.7,2.9c0,1.2-1,1.7-2.2,1.7
		c-0.7,0-1.3-0.1-1.6-0.2v-1.1c0.4,0.2,0.9,0.6,1.6,0.6c0.7,0,1-0.3,1-0.7c0-1-2.6-1.2-2.6-2.8c0-0.8,0.6-1.6,2.1-1.6
		c0.6,0,1.2,0.2,1.4,0.2V7.6z"/>
	<polygon class="st0" points="125.5,4 126.8,4 125.9,6.7 125,6.7 	"/>
	<path class="st0" d="M130.2,7.6c-0.4-0.3-0.9-0.5-1.5-0.5c-0.4,0-0.8,0.2-0.8,0.6c0,1,2.7,1.1,2.7,2.9c0,1.2-1,1.7-2.2,1.7
		c-0.7,0-1.3-0.1-1.6-0.2v-1.1c0.4,0.2,0.9,0.6,1.6,0.6c0.7,0,1-0.3,1-0.7c0-1-2.6-1.2-2.6-2.8c0-0.8,0.6-1.6,2.1-1.6
		c0.6,0,1.2,0.2,1.4,0.2V7.6z"/>
	<polygon class="st0" points="44.2,4 45.4,4 46.7,10.2 46.7,10.2 48.7,4 49.7,4 51.7,10.2 51.8,10.2 53,4 54.1,4 52.5,12.1 
		51.1,12.1 49.2,5.9 49.1,5.9 47.1,12.1 45.8,12.1 	"/>
	<path class="st0" d="M57,11.7c1.1,0,1.2-1.4,1.2-2.4c0-1-0.1-2.4-1.2-2.4c-1.1,0-1.2,1.4-1.2,2.4C55.7,10.3,55.9,11.7,57,11.7
		 M54.4,9.3c0-1.9,0.9-2.9,2.6-2.9c1.7,0,2.6,1,2.6,2.9c0,1.9-0.9,2.9-2.6,2.9C55.2,12.2,54.4,11.2,54.4,9.3"/>
	<path class="st0" d="M60.8,6.5H62v1.4h0c0.4-0.7,0.8-1.5,1.9-1.5v1.2C62.8,7.7,62,8,62,9.5v2.5h-1.2V6.5z"/>
	<polygon class="st0" points="65.2,4 66.4,4 66.4,8.8 68.4,6.5 69.8,6.5 67.6,8.9 70.1,12.1 68.6,12.1 66.4,9.3 66.4,9.3 66.4,12.1 
		65.2,12.1 	"/>
	<path class="st0" d="M83.3,11.7c1.1,0,1.2-1.4,1.2-2.4c0-1-0.1-2.4-1.2-2.4c-1.1,0-1.2,1.4-1.2,2.4C82.1,10.3,82.2,11.7,83.3,11.7
		 M80.7,9.3c0-1.9,0.9-2.9,2.6-2.9c1.7,0,2.6,1,2.6,2.9c0,1.9-0.9,2.9-2.6,2.9C81.6,12.2,80.7,11.2,80.7,9.3"/>
	<path class="st0" d="M87.2,6.5h1.2v1.3h0c0.1-0.4,0.7-1.4,1.8-1.4c1,0,1.4,0.8,1.5,1.4h0c0.2-0.4,0.6-1.4,1.8-1.4
		c1.2,0,1.5,1,1.5,1.9v3.8h-1.2V8.5c0-0.6-0.1-1.2-0.7-1.2c-1.1,0-1.3,1.8-1.3,2.5v2.3h-1.2V8.6c0-0.7-0.1-1.3-0.7-1.3
		c-1.1,0-1.3,1.9-1.3,2.5v2.3h-1.2V6.5z"/>
	<path class="st0" d="M98.7,11.7c1.1,0,1.2-1.4,1.2-2.4c0-1-0.1-2.4-1.2-2.4c-1.1,0-1.2,1.4-1.2,2.4C97.5,10.3,97.6,11.7,98.7,11.7
		 M96.1,9.3c0-1.9,0.9-2.9,2.6-2.9c1.7,0,2.6,1,2.6,2.9c0,1.9-0.9,2.9-2.6,2.9C97,12.2,96.1,11.2,96.1,9.3"/>
	<path class="st0" d="M102.5,6.5h1.2v1.4h0c0.4-0.7,0.8-1.5,1.9-1.5v1.2c-1.2,0-1.9,0.4-1.9,1.9v2.5h-1.2V6.5z"/>
	<path class="st0" d="M106.9,6.5h1.2v1.4h0c0.4-0.7,0.8-1.5,1.9-1.5v1.2c-1.2,0-1.9,0.4-1.9,1.9v2.5h-1.2V6.5z"/>
	<path class="st0" d="M113.3,11.7c1.1,0,1.2-1.4,1.2-2.4c0-1-0.1-2.4-1.2-2.4c-1.1,0-1.2,1.4-1.2,2.4
		C112.1,10.3,112.2,11.7,113.3,11.7 M110.7,9.3c0-1.9,0.9-2.9,2.6-2.9c1.7,0,2.6,1,2.6,2.9c0,1.9-0.9,2.9-2.6,2.9
		C111.6,12.2,110.7,11.2,110.7,9.3"/>
	<polygon class="st0" points="116.5,6.5 117.7,6.5 118.7,10.5 118.7,10.5 119.9,6.5 120.8,6.5 122,10.5 122,10.5 122.9,6.5 124,6.5 
		122.6,12.1 121.5,12.1 120.3,8.3 120.3,8.3 119.1,12.1 118.1,12.1 	"/>
	<polygon class="st0" points="136,4 137.4,4 137.4,7.5 140.4,7.5 140.4,4 141.8,4 141.8,12.1 140.4,12.1 140.4,8.3 137.4,8.3 
		137.4,12.1 136,12.1 	"/>
	<path class="st0" d="M149,6.5h1.2v1.4h0c0.4-0.7,0.8-1.5,1.9-1.5v1.2c-1.2,0-1.9,0.4-1.9,1.9v2.5H149V6.5z"/>
	<path class="st0" d="M153.4,6.5h1.2v5.6h-1.2V6.5z M153.4,4h1.3v1.2h-1.3V4z"/>
	<path class="st0" d="M159.5,12.1c-0.2,0.1-0.6,0.1-0.9,0.1c-1.2,0-1.8-0.3-1.8-1.4V7.2h-0.9V6.5h0.9V5.2l1.2-0.7v2h1.6v0.7h-1.6
		v3.2c0,0.8,0.1,1.2,0.9,1.2c0.2,0,0.4,0,0.6-0.1V12.1z"/>
	<path class="st0" d="M163.7,9.5c-0.5,0-1.9,0.1-1.9,1.2c0,0.5,0.3,0.8,0.7,0.8c0.4,0,1.2-0.4,1.2-1.3V9.5z M163.7,11.3L163.7,11.3
		c-0.2,0.3-0.7,0.9-1.7,0.9c-0.9,0-1.6-0.6-1.6-1.4c0-1.7,2.5-1.8,3.3-1.8V8.5c0-0.6,0-1.6-0.8-1.6c-0.8,0-0.9,0.6-0.9,1.2h-1.3
		c0.1-0.8,0.4-1.7,2.3-1.7c1.9,0,2.1,1,2.1,2.1v3.6h-1.2V11.3z"/>
	<path class="st0" d="M168.8,11.4c1.1,0,1.2-1.2,1.2-2.1c0-0.9-0.1-2.2-1.2-2.2c-1,0-1.2,1.2-1.2,2.1
		C167.6,10.2,167.8,11.4,168.8,11.4 M171.2,11.9c0,1.6-0.5,2.8-2.9,2.8c-0.7,0-1.2-0.1-1.7-0.2v-1.2c0.4,0.2,1.1,0.7,1.9,0.7
		c1.3,0,1.5-0.9,1.5-2.1v-0.6h0c-0.2,0.3-0.5,0.8-1.5,0.8c-1.5,0-2.2-1.2-2.2-2.8c0-1.6,0.5-2.8,2.2-2.8c1,0,1.4,0.7,1.5,1h0V6.5
		h1.2V11.9z"/>
	<path class="st0" d="M176.1,8.1c0-0.4-0.2-1.2-1.1-1.2c-1,0-1.1,0.9-1.2,1.2H176.1z M177.2,11.9c-0.5,0.2-1,0.3-1.7,0.3
		c-1.6,0-2.9-0.9-2.9-3.2c0-1.5,0.7-2.7,2.5-2.7c1.9,0,2.2,1.2,2.2,2.3h-3.5c0,1.1,0.5,2.9,2.3,2.9c0.4,0,0.8-0.1,1.1-0.2V11.9z"/>
	<path class="st0" d="M146.7,8.1c0-0.4-0.2-1.2-1.1-1.2c-1,0-1.1,0.9-1.2,1.2H146.7z M147.8,11.9c-0.5,0.2-1,0.3-1.7,0.3
		c-1.6,0-2.9-0.9-2.9-3.2c0-1.5,0.7-2.7,2.5-2.7c1.9,0,2.2,1.2,2.2,2.3h-3.5c0,1.1,0.5,2.9,2.3,2.9c0.4,0,0.7-0.1,1.1-0.2V11.9z"/>
</g>
</svg>
