<svg width="162" height="30" viewBox="0 0 162 30" fill="none" xmlns="http://www.w3.org/2000/svg">
<g clip-path="url(#clip0_70_15434)">
<path d="M25.8 8.5L15.66 30H14.15L0 0H8L14.9 14.61L21.79 0H29.81L36.7 14.61L43.59 0H51.6L37.45 30H35.94L25.8 8.5Z" fill="#0984E3"/>
<path d="M10.9 23.11L21.81 0L25.8 8.5L15.66 30H14.15L10.9 23.11Z" fill="#004D94"/>
<path d="M90.0799 14.65C90.0799 19.55 89.7999 20.41 86.9399 22.04L88.8099 24.53C92.9999 22.16 93.1799 19.32 93.1799 14.65V7.29004H90.0799V14.65Z" fill="#0984E3"/>
<path d="M102.46 14.7C101.94 18.01 100.48 19.75 98.62 20.64V7.28003H95.52V24.48C101.26 24.02 104.25 21.25 105.56 15.32L102.46 14.69V14.7Z" fill="#0984E3"/>
<path d="M116.79 16C118.7 13.26 119.73 10.77 120.23 7.55005H107.24V10.42H116.33C114.3 15.25 110.59 19.47 105.98 21.86L107.56 24.53C110.22 23.17 112.87 20.99 114.96 18.5C116.7 20.06 118.77 22.2301 120.53 24.5401L123.01 22.69C121.23 20.33 118.78 17.71 116.8 16H116.79Z" fill="#0984E3"/>
<path d="M134.61 6.38988H131.5V10.7699H124.04V13.6399H131.5V14.4099C131.5 15.8899 131.34 17.4699 130.15 18.9599C129.37 19.9299 127.71 20.8099 124.85 21.5699L125.9 24.4899C130.51 23.2299 134.58 21.1399 134.58 14.5099C134.58 14.2999 134.58 13.6299 134.58 13.6299H140.67V10.7599H134.57L134.59 6.37988L134.61 6.38988Z" fill="#0984E3"/>
<path d="M80.77 15.2501H84.65V12.8101H74.1V15.2501H77.99V21.5201H73.5V23.9501H85.25V21.5201H80.77V15.2501Z" fill="#0984E3"/>
<path d="M65.19 6.07007H62.09V8.97007H55.67V15.9101H58.77V11.8501H68.48C68.43 18.0401 65.92 20.1401 60.74 21.6301L61.78 24.5001C68.66 22.7301 71.58 18.6201 71.58 11.8001V8.98007H65.2V6.08007L65.19 6.07007Z" fill="#0984E3"/>
<path d="M147.58 21.0801C146.75 21.0801 146.02 20.5201 146.02 19.5001V15.6801L155.5 12.8301L154.67 10.0801L146.02 12.6801V6.86011H142.92V19.6401C142.92 22.0101 144.85 23.9401 147.22 23.9401H156.57V21.0701H147.58V21.0801Z" fill="#0984E3"/>
<path d="M156.85 6.97998L155.09 7.50998C155.53 8.39998 156.19 10.46 156.45 11.38L158.22 10.85C158.04 10.21 157.26 7.78998 156.85 6.97998Z" fill="#0984E3"/>
<path d="M159.74 6.12012L157.98 6.65012C158.42 7.54012 159.08 9.60012 159.34 10.5201L161.11 9.99012C160.93 9.35012 160.15 6.93012 159.74 6.12012Z" fill="#0984E3"/>
</g>
<defs>
<clipPath id="clip0_70_15434">
<rect width="161.11" height="30" fill="white"/>
</clipPath>
</defs>
</svg>
